<svg width="303" height="210" viewBox="0 0 303 210" fill="none" xmlns="http://www.w3.org/2000/svg">
<rect width="303" height="210" rx="12" fill="#0F1114"/>
<path d="M131.773 22.4609C133.131 22.4609 134.127 23.3203 134.137 24.5312C134.127 25.7715 133.131 26.6113 131.773 26.6113C130.406 26.6113 129.4 25.7715 129.41 24.5312C129.4 23.3203 130.406 22.4609 131.773 22.4609ZM131.773 23.3691C131.012 23.3594 130.465 23.8184 130.465 24.5312C130.465 25.2539 131.012 25.7031 131.773 25.7031C132.525 25.7031 133.072 25.2539 133.072 24.5312C133.072 23.8184 132.525 23.3594 131.773 23.3691ZM136.256 22.041V23.9551H137.486V24.8535H136.256V26.8262H135.172V22.041H136.256ZM131.617 27.2168V28.1348H135.172V27.2168H136.256V30.7617H130.533V27.2168H131.617ZM131.617 29.8828H135.172V28.9746H131.617V29.8828ZM145.982 26.416V27.2852H142.486V28.125H144.996V30.8496H143.912V28.9941H138.824V28.125H141.412V27.2852H137.936V26.416H145.982ZM142.486 22.0312V22.8711H145.191V23.7207H142.564C142.682 24.4727 143.717 25.0879 145.582 25.2246L145.24 26.0449C143.668 25.9131 142.501 25.4248 141.949 24.6582C141.397 25.4248 140.226 25.9131 138.658 26.0449L138.316 25.2246C140.162 25.0879 141.207 24.4727 141.334 23.7207H138.727V22.8711H141.412V22.0312H142.486ZM150.885 23.4473V24.3164H146.559V23.4473H148.199V22.2949H149.273V23.4473H150.885ZM148.736 24.7852C149.859 24.7852 150.66 25.6348 150.66 26.8359C150.66 28.0566 149.859 28.916 148.736 28.916C147.623 28.916 146.803 28.0566 146.812 26.8359C146.803 25.6348 147.623 24.7852 148.736 24.7852ZM148.736 25.6836C148.16 25.6836 147.76 26.1426 147.77 26.8359C147.76 27.5488 148.16 27.998 148.736 27.9883C149.303 27.998 149.703 27.5488 149.703 26.8359C149.703 26.1426 149.303 25.6836 148.736 25.6836ZM154.166 22.041V30.8691H153.131V26.5527H152.271V30.4688H151.256V22.2266H152.271V25.6738H153.131V22.041H154.166ZM162.818 22.041V30.8691H161.783V22.041H162.818ZM161.021 22.207V30.4395H159.996V25.9961H158.727V25.1172H159.996V22.207H161.021ZM157.945 24.4531C157.945 25.9473 158.482 27.4414 159.742 28.1641L159.098 28.9648C158.282 28.4766 157.74 27.6367 157.438 26.6309C157.125 27.7197 156.563 28.6475 155.729 29.1699L155.064 28.3594C156.344 27.5879 156.9 25.9863 156.9 24.4531V23.8672H155.367V22.9883H159.371V23.8672H157.945V24.4531ZM173.844 22.9883V23.8672H166.637V22.9883H169.713V22.0215H170.787V22.9883H173.844ZM174.303 27.7441V28.6328H170.787V30.8789H169.713V28.6328H166.236V27.7441H174.303ZM170.25 24.2676C172.115 24.2676 173.238 24.7949 173.238 25.7617C173.238 26.7285 172.115 27.2559 170.25 27.2559C168.385 27.2559 167.262 26.7285 167.262 25.7617C167.262 24.7949 168.385 24.2676 170.25 24.2676ZM170.25 25.0781C169.029 25.0781 168.385 25.3125 168.395 25.7617C168.385 26.2109 169.029 26.4453 170.25 26.4453C171.471 26.4453 172.115 26.2109 172.115 25.7617C172.115 25.3125 171.471 25.0781 170.25 25.0781Z" fill="white"/>
<path d="M78.3477 63.9922C78.1035 63.9922 77.8594 63.9824 77.7031 63.9629V62.9668C77.8594 62.9766 78.0645 62.9863 78.2305 62.9863C78.5332 62.9863 78.7871 62.957 79.002 62.3906L79.1094 62.1074L77.1758 56.6973H78.4941L79.7246 60.7012H79.7832L81.0137 56.6973H82.332L80.2031 62.6445C79.9004 63.4941 79.3438 63.9922 78.3477 63.9922ZM85.2422 62.1074C83.6992 62.1074 82.7031 61.0137 82.7031 59.373C82.7031 57.7227 83.6992 56.6289 85.2422 56.6289C86.7949 56.6289 87.7812 57.7227 87.7812 59.373C87.7812 61.0137 86.7949 62.1074 85.2422 62.1074ZM85.252 61.1113C86.1016 61.1113 86.5215 60.3398 86.5215 59.3633C86.5215 58.3965 86.1016 57.6152 85.252 57.6152C84.3828 57.6152 83.9629 58.3965 83.9629 59.3633C83.9629 60.3398 84.3828 61.1113 85.252 61.1113ZM92.1367 59.7734V56.6973H93.377V62H92.1758V61.0625H92.1172C91.873 61.6484 91.3164 62.0684 90.5254 62.0684C89.4805 62.0684 88.7578 61.3457 88.748 60.0762V56.6973H89.998V59.8809C89.998 60.5547 90.3984 60.9844 91.0039 60.9844C91.5508 60.9844 92.1367 60.584 92.1367 59.7734ZM94.5684 62V56.6973H95.7793V57.5762H95.8379C96.0234 56.9707 96.541 56.6191 97.1465 56.6191C97.2832 56.6191 97.4785 56.6289 97.5957 56.6484V57.8008C97.4883 57.7617 97.2246 57.7227 97.0195 57.7227C96.3262 57.7227 95.8184 58.2012 95.8184 58.875V62H94.5684ZM102.254 62V62.9961H97.6836V62H102.254ZM103.123 62V56.6973H104.373V62H103.123ZM103.758 55.9453C103.367 55.9453 103.035 55.6426 103.035 55.2617C103.035 54.8906 103.367 54.5879 103.758 54.5879C104.158 54.5879 104.48 54.8906 104.48 55.2617C104.48 55.6426 104.158 55.9453 103.758 55.9453ZM106.814 58.8945V62H105.564V56.6973H106.756V57.5957H106.824C107.068 57 107.605 56.6289 108.396 56.6289C109.5 56.6289 110.223 57.3516 110.213 58.6211V62H108.973V58.8164C108.973 58.1035 108.592 57.6836 107.938 57.6836C107.273 57.6836 106.814 58.123 106.814 58.8945ZM114.412 58.2109C114.334 57.8105 114.002 57.5566 113.475 57.5566C112.938 57.5566 112.547 57.8203 112.557 58.1816C112.547 58.4551 112.771 58.6602 113.309 58.7871L114.207 58.9727C115.213 59.1973 115.691 59.6562 115.701 60.418C115.691 61.4141 114.822 62.1074 113.436 62.1074C112.088 62.1074 111.287 61.502 111.16 60.4863H112.43C112.508 60.9355 112.859 61.1602 113.436 61.1602C114.031 61.1602 114.432 60.916 114.432 60.5254C114.432 60.2227 114.188 60.0273 113.66 59.9102L112.811 59.7246C111.824 59.5293 111.316 59.0117 111.316 58.25C111.316 57.2734 112.156 56.6289 113.455 56.6289C114.725 56.6289 115.506 57.2441 115.594 58.2109H114.412ZM119.295 56.6973V57.6543H118.25V60.4082C118.25 60.916 118.504 61.0234 118.816 61.0234C118.963 61.0234 119.207 61.0137 119.363 61.0039V62.0195C119.217 62.0488 118.973 62.0684 118.66 62.0684C117.723 62.0684 117 61.6094 117.01 60.6133V57.6543H116.248V56.6973H117.01V55.4277H118.25V56.6973H119.295ZM120.008 60.5059C120.008 59.3145 120.994 58.9629 121.98 58.9043C122.347 58.8799 123.108 58.8359 123.338 58.8262V58.4062C123.338 57.8789 122.996 57.5762 122.381 57.5762C121.824 57.5762 121.482 57.8301 121.385 58.2109H120.184C120.271 57.3125 121.082 56.6289 122.41 56.6289C123.416 56.6289 124.578 57.0391 124.578 58.4551V62H123.387V61.2676H123.348C123.113 61.7168 122.615 62.1074 121.785 62.1074C120.77 62.1074 120.008 61.5508 120.008 60.5059ZM121.209 60.4961C121.209 60.9551 121.58 61.1895 122.107 61.1895C122.859 61.1895 123.348 60.6914 123.348 60.0957V59.6562L122.176 59.7344C121.58 59.7832 121.209 60.0273 121.209 60.4961ZM128.064 64.0996C126.658 64.0996 125.77 63.4746 125.682 62.4785H126.922C127.01 62.9375 127.449 63.1621 128.084 63.1621C128.826 63.1621 129.314 62.8398 129.314 62.0586V61.043H129.256C129.061 61.4336 128.641 61.9219 127.723 61.9219C126.502 61.9219 125.535 61.0332 125.535 59.3047C125.535 57.5566 126.502 56.6289 127.732 56.6289C128.67 56.6289 129.061 57.1855 129.256 57.5664H129.314V56.6973H130.545V62.0879C130.545 63.4453 129.5 64.0996 128.064 64.0996ZM128.064 60.9453C128.865 60.9453 129.324 60.3398 129.324 59.3242C129.324 58.3184 128.875 57.6445 128.064 57.6445C127.234 57.6445 126.805 58.3574 126.805 59.3242C126.805 60.3008 127.244 60.9453 128.064 60.9453ZM131.736 62V56.6973H132.947V57.5762H133.006C133.191 56.9707 133.709 56.6191 134.314 56.6191C134.451 56.6191 134.646 56.6289 134.764 56.6484V57.8008C134.656 57.7617 134.393 57.7227 134.188 57.7227C133.494 57.7227 132.986 58.2012 132.986 58.875V62H131.736ZM135.164 60.5059C135.164 59.3145 136.15 58.9629 137.137 58.9043C137.503 58.8799 138.265 58.8359 138.494 58.8262V58.4062C138.494 57.8789 138.152 57.5762 137.537 57.5762C136.98 57.5762 136.639 57.8301 136.541 58.2109H135.34C135.428 57.3125 136.238 56.6289 137.566 56.6289C138.572 56.6289 139.734 57.0391 139.734 58.4551V62H138.543V61.2676H138.504C138.27 61.7168 137.771 62.1074 136.941 62.1074C135.926 62.1074 135.164 61.5508 135.164 60.5059ZM136.365 60.4961C136.365 60.9551 136.736 61.1895 137.264 61.1895C138.016 61.1895 138.504 60.6914 138.504 60.0957V59.6562L137.332 59.7344C136.736 59.7832 136.365 60.0273 136.365 60.4961ZM140.906 62V56.6973H142.098V57.5957H142.166C142.381 56.9902 142.918 56.6289 143.621 56.6289C144.344 56.6289 144.852 56.9902 145.057 57.5957H145.115C145.35 57.0098 145.936 56.6289 146.707 56.6289C147.674 56.6289 148.357 57.2539 148.357 58.4355V62H147.117V58.6309C147.117 57.9668 146.717 57.6738 146.209 57.6738C145.594 57.6738 145.242 58.0938 145.242 58.6895V62H144.031V58.582C144.031 58.0352 143.66 57.6738 143.133 57.6738C142.596 57.6738 142.156 58.1133 142.156 58.7773V62H140.906ZM153.465 62V62.9961H148.895V62H153.465ZM153.758 60.5059C153.758 59.3145 154.744 58.9629 155.73 58.9043C156.097 58.8799 156.858 58.8359 157.088 58.8262V58.4062C157.088 57.8789 156.746 57.5762 156.131 57.5762C155.574 57.5762 155.232 57.8301 155.135 58.2109H153.934C154.021 57.3125 154.832 56.6289 156.16 56.6289C157.166 56.6289 158.328 57.0391 158.328 58.4551V62H157.137V61.2676H157.098C156.863 61.7168 156.365 62.1074 155.535 62.1074C154.52 62.1074 153.758 61.5508 153.758 60.5059ZM154.959 60.4961C154.959 60.9551 155.33 61.1895 155.857 61.1895C156.609 61.1895 157.098 60.6914 157.098 60.0957V59.6562L155.926 59.7344C155.33 59.7832 154.959 60.0273 154.959 60.4961ZM161.814 62.1074C160.232 62.1074 159.275 60.9746 159.275 59.373C159.275 57.752 160.262 56.6289 161.814 56.6289C163.104 56.6289 164.002 57.3809 164.09 58.5234H162.898C162.801 58.0156 162.43 57.625 161.824 57.625C161.053 57.625 160.535 58.2793 160.535 59.3438C160.535 60.4375 161.043 61.0918 161.824 61.0918C162.381 61.0918 162.791 60.7695 162.898 60.1934H164.09C163.992 61.3164 163.143 62.1074 161.814 62.1074ZM167.674 56.6973V57.6543H166.629V60.4082C166.629 60.916 166.883 61.0234 167.195 61.0234C167.342 61.0234 167.586 61.0137 167.742 61.0039V62.0195C167.596 62.0488 167.352 62.0684 167.039 62.0684C166.102 62.0684 165.379 61.6094 165.389 60.6133V57.6543H164.627V56.6973H165.389V55.4277H166.629V56.6973H167.674ZM168.631 62V56.6973H169.881V62H168.631ZM169.266 55.9453C168.875 55.9453 168.543 55.6426 168.543 55.2617C168.543 54.8906 168.875 54.5879 169.266 54.5879C169.666 54.5879 169.988 54.8906 169.988 55.2617C169.988 55.6426 169.666 55.9453 169.266 55.9453ZM175.809 56.6973L173.914 62H172.547L170.652 56.6973H171.98L173.201 60.6426H173.26L174.49 56.6973H175.809ZM176.59 62V56.6973H177.84V62H176.59ZM177.225 55.9453C176.834 55.9453 176.502 55.6426 176.502 55.2617C176.502 54.8906 176.834 54.5879 177.225 54.5879C177.625 54.5879 177.947 54.8906 177.947 55.2617C177.947 55.6426 177.625 55.9453 177.225 55.9453ZM181.678 56.6973V57.6543H180.633V60.4082C180.633 60.916 180.887 61.0234 181.199 61.0234C181.346 61.0234 181.59 61.0137 181.746 61.0039V62.0195C181.6 62.0488 181.355 62.0684 181.043 62.0684C180.105 62.0684 179.383 61.6094 179.393 60.6133V57.6543H178.631V56.6973H179.393V55.4277H180.633V56.6973H181.678ZM183.387 63.9922C183.143 63.9922 182.898 63.9824 182.742 63.9629V62.9668C182.898 62.9766 183.104 62.9863 183.27 62.9863C183.572 62.9863 183.826 62.957 184.041 62.3906L184.148 62.1074L182.215 56.6973H183.533L184.764 60.7012H184.822L186.053 56.6973H187.371L185.242 62.6445C184.939 63.4941 184.383 63.9922 183.387 63.9922ZM195.262 54.9004V55.7891H194.412V59.7637C194.812 59.7295 195.208 59.6953 195.584 59.6465L195.633 60.4277C193.807 60.7402 191.766 60.7793 190.232 60.7793L190.105 59.8906L191.17 59.8809V55.7891H190.33V54.9004H195.262ZM197.137 54.041V57.459H198.494V58.3477H197.137V62.8691H196.053V54.041H197.137ZM192.225 59.8613C192.601 59.8564 192.981 59.8418 193.367 59.8223V55.7891H192.225V59.8613ZM201.365 54.3242C202.703 54.3242 203.699 55.1543 203.709 56.3164C203.699 57.4883 202.703 58.3086 201.365 58.3086C200.018 58.3086 199.021 57.4883 199.021 56.3164C199.021 55.1543 200.018 54.3242 201.365 54.3242ZM201.365 55.2227C200.623 55.2227 200.076 55.6426 200.076 56.3164C200.076 57 200.623 57.4297 201.365 57.4297C202.107 57.4297 202.654 57 202.654 56.3164C202.654 55.6426 202.107 55.2227 201.365 55.2227ZM206.219 54.041V58.5039H205.125V54.041H206.219ZM206.219 58.8848V61.1895H201.443V61.9023H206.482V62.7617H200.379V60.3887H205.135V59.7344H200.359V58.8848H206.219ZM217.225 54.041V62.8789H216.131V54.041H217.225ZM212.469 54.6855C213.797 54.6855 214.764 55.8965 214.773 57.8008C214.764 59.7246 213.797 60.9258 212.469 60.9258C211.131 60.9258 210.164 59.7246 210.164 57.8008C210.164 55.8965 211.131 54.6855 212.469 54.6855ZM212.469 55.6621C211.717 55.6621 211.209 56.4531 211.209 57.8008C211.209 59.1582 211.717 59.9492 212.469 59.9492C213.211 59.9492 213.719 59.1582 213.719 57.8008C213.719 56.4531 213.211 55.6621 212.469 55.6621ZM226.58 58.2695V59.1387H218.523V58.2695H222.02V57.4297H219.51V54.4414H225.604V55.291H220.594V56.5703H225.652V57.4297H223.084V58.2695H226.58ZM222.537 59.6465C224.441 59.6465 225.584 60.2227 225.594 61.2578C225.584 62.2832 224.441 62.8691 222.537 62.8691C220.613 62.8691 219.461 62.2832 219.461 61.2578C219.461 60.2227 220.613 59.6465 222.537 59.6465ZM222.537 60.4766C221.248 60.4766 220.555 60.75 220.564 61.2578C220.555 61.7656 221.248 62.0293 222.537 62.0293C223.797 62.0293 224.5 61.7656 224.51 61.2578C224.5 60.75 223.797 60.4766 222.537 60.4766Z" fill="white"/>
<path d="M109.596 94V88.6973H110.787V89.5957H110.855C111.07 88.9902 111.607 88.6289 112.311 88.6289C113.033 88.6289 113.541 88.9902 113.746 89.5957H113.805C114.039 89.0098 114.625 88.6289 115.396 88.6289C116.363 88.6289 117.047 89.2539 117.047 90.4355V94H115.807V90.6309C115.807 89.9668 115.406 89.6738 114.898 89.6738C114.283 89.6738 113.932 90.0938 113.932 90.6895V94H112.721V90.582C112.721 90.0352 112.35 89.6738 111.822 89.6738C111.285 89.6738 110.846 90.1133 110.846 90.7773V94H109.596ZM120.592 94.1074C118.99 94.1074 118.014 93.043 118.014 91.3828C118.014 89.7422 119.01 88.6289 120.523 88.6289C121.822 88.6289 122.945 89.4395 122.945 91.3047V91.6953H119.244C119.259 92.5986 119.791 93.1309 120.602 93.1309C121.148 93.1309 121.52 92.8965 121.676 92.584H122.896C122.672 93.502 121.822 94.1074 120.592 94.1074ZM119.254 90.8457H121.754C121.744 90.123 121.266 89.5957 120.543 89.5957C119.791 89.5957 119.293 90.167 119.254 90.8457ZM126.92 90.2109C126.842 89.8105 126.51 89.5566 125.982 89.5566C125.445 89.5566 125.055 89.8203 125.064 90.1816C125.055 90.4551 125.279 90.6602 125.816 90.7871L126.715 90.9727C127.721 91.1973 128.199 91.6562 128.209 92.418C128.199 93.4141 127.33 94.1074 125.943 94.1074C124.596 94.1074 123.795 93.502 123.668 92.4863H124.938C125.016 92.9355 125.367 93.1602 125.943 93.1602C126.539 93.1602 126.939 92.916 126.939 92.5254C126.939 92.2227 126.695 92.0273 126.168 91.9102L125.318 91.7246C124.332 91.5293 123.824 91.0117 123.824 90.25C123.824 89.2734 124.664 88.6289 125.963 88.6289C127.232 88.6289 128.014 89.2441 128.102 90.2109H126.92ZM132.164 90.2109C132.086 89.8105 131.754 89.5566 131.227 89.5566C130.689 89.5566 130.299 89.8203 130.309 90.1816C130.299 90.4551 130.523 90.6602 131.061 90.7871L131.959 90.9727C132.965 91.1973 133.443 91.6562 133.453 92.418C133.443 93.4141 132.574 94.1074 131.188 94.1074C129.84 94.1074 129.039 93.502 128.912 92.4863H130.182C130.26 92.9355 130.611 93.1602 131.188 93.1602C131.783 93.1602 132.184 92.916 132.184 92.5254C132.184 92.2227 131.939 92.0273 131.412 91.9102L130.562 91.7246C129.576 91.5293 129.068 91.0117 129.068 90.25C129.068 89.2734 129.908 88.6289 131.207 88.6289C132.477 88.6289 133.258 89.2441 133.346 90.2109H132.164ZM134.156 92.5059C134.156 91.3145 135.143 90.9629 136.129 90.9043C136.495 90.8799 137.257 90.8359 137.486 90.8262V90.4062C137.486 89.8789 137.145 89.5762 136.529 89.5762C135.973 89.5762 135.631 89.8301 135.533 90.2109H134.332C134.42 89.3125 135.23 88.6289 136.559 88.6289C137.564 88.6289 138.727 89.0391 138.727 90.4551V94H137.535V93.2676H137.496C137.262 93.7168 136.764 94.1074 135.934 94.1074C134.918 94.1074 134.156 93.5508 134.156 92.5059ZM135.357 92.4961C135.357 92.9551 135.729 93.1895 136.256 93.1895C137.008 93.1895 137.496 92.6914 137.496 92.0957V91.6562L136.324 91.7344C135.729 91.7832 135.357 92.0273 135.357 92.4961ZM142.213 96.0996C140.807 96.0996 139.918 95.4746 139.83 94.4785H141.07C141.158 94.9375 141.598 95.1621 142.232 95.1621C142.975 95.1621 143.463 94.8398 143.463 94.0586V93.043H143.404C143.209 93.4336 142.789 93.9219 141.871 93.9219C140.65 93.9219 139.684 93.0332 139.684 91.3047C139.684 89.5566 140.65 88.6289 141.881 88.6289C142.818 88.6289 143.209 89.1855 143.404 89.5664H143.463V88.6973H144.693V94.0879C144.693 95.4453 143.648 96.0996 142.213 96.0996ZM142.213 92.9453C143.014 92.9453 143.473 92.3398 143.473 91.3242C143.473 90.3184 143.023 89.6445 142.213 89.6445C141.383 89.6445 140.953 90.3574 140.953 91.3242C140.953 92.3008 141.393 92.9453 142.213 92.9453ZM148.238 94.1074C146.637 94.1074 145.66 93.043 145.66 91.3828C145.66 89.7422 146.656 88.6289 148.17 88.6289C149.469 88.6289 150.592 89.4395 150.592 91.3047V91.6953H146.891C146.905 92.5986 147.438 93.1309 148.248 93.1309C148.795 93.1309 149.166 92.8965 149.322 92.584H150.543C150.318 93.502 149.469 94.1074 148.238 94.1074ZM146.9 90.8457H149.4C149.391 90.123 148.912 89.5957 148.189 89.5957C147.438 89.5957 146.939 90.167 146.9 90.8457ZM154.566 90.2109C154.488 89.8105 154.156 89.5566 153.629 89.5566C153.092 89.5566 152.701 89.8203 152.711 90.1816C152.701 90.4551 152.926 90.6602 153.463 90.7871L154.361 90.9727C155.367 91.1973 155.846 91.6562 155.855 92.418C155.846 93.4141 154.977 94.1074 153.59 94.1074C152.242 94.1074 151.441 93.502 151.314 92.4863H152.584C152.662 92.9355 153.014 93.1602 153.59 93.1602C154.186 93.1602 154.586 92.916 154.586 92.5254C154.586 92.2227 154.342 92.0273 153.814 91.9102L152.965 91.7246C151.979 91.5293 151.471 91.0117 151.471 90.25C151.471 89.2734 152.311 88.6289 153.609 88.6289C154.879 88.6289 155.66 89.2441 155.748 90.2109H154.566ZM163.912 86.9004V87.7891H163.062V91.7637C163.463 91.7295 163.858 91.6953 164.234 91.6465L164.283 92.4277C162.457 92.7402 160.416 92.7793 158.883 92.7793L158.756 91.8906L159.82 91.8809V87.7891H158.98V86.9004H163.912ZM165.787 86.041V89.459H167.145V90.3477H165.787V94.8691H164.703V86.041H165.787ZM160.875 91.8613C161.251 91.8564 161.632 91.8418 162.018 91.8223V87.7891H160.875V91.8613ZM170.016 86.3242C171.354 86.3242 172.35 87.1543 172.359 88.3164C172.35 89.4883 171.354 90.3086 170.016 90.3086C168.668 90.3086 167.672 89.4883 167.672 88.3164C167.672 87.1543 168.668 86.3242 170.016 86.3242ZM170.016 87.2227C169.273 87.2227 168.727 87.6426 168.727 88.3164C168.727 89 169.273 89.4297 170.016 89.4297C170.758 89.4297 171.305 89 171.305 88.3164C171.305 87.6426 170.758 87.2227 170.016 87.2227ZM174.869 86.041V90.5039H173.775V86.041H174.869ZM174.869 90.8848V93.1895H170.094V93.9023H175.133V94.7617H169.029V92.3887H173.785V91.7344H169.01V90.8848H174.869ZM185.875 86.041V94.8789H184.781V86.041H185.875ZM181.119 86.6855C182.447 86.6855 183.414 87.8965 183.424 89.8008C183.414 91.7246 182.447 92.9258 181.119 92.9258C179.781 92.9258 178.814 91.7246 178.814 89.8008C178.814 87.8965 179.781 86.6855 181.119 86.6855ZM181.119 87.6621C180.367 87.6621 179.859 88.4531 179.859 89.8008C179.859 91.1582 180.367 91.9492 181.119 91.9492C181.861 91.9492 182.369 91.1582 182.369 89.8008C182.369 88.4531 181.861 87.6621 181.119 87.6621ZM195.23 90.2695V91.1387H187.174V90.2695H190.67V89.4297H188.16V86.4414H194.254V87.291H189.244V88.5703H194.303V89.4297H191.734V90.2695H195.23ZM191.188 91.6465C193.092 91.6465 194.234 92.2227 194.244 93.2578C194.234 94.2832 193.092 94.8691 191.188 94.8691C189.264 94.8691 188.111 94.2832 188.111 93.2578C188.111 92.2227 189.264 91.6465 191.188 91.6465ZM191.188 92.4766C189.898 92.4766 189.205 92.75 189.215 93.2578C189.205 93.7656 189.898 94.0293 191.188 94.0293C192.447 94.0293 193.15 93.7656 193.16 93.2578C193.15 92.75 192.447 92.4766 191.188 92.4766Z" fill="white"/>
<path d="M120.596 126V120.697H121.846V126H120.596ZM121.23 119.945C120.84 119.945 120.508 119.643 120.508 119.262C120.508 118.891 120.84 118.588 121.23 118.588C121.631 118.588 121.953 118.891 121.953 119.262C121.953 119.643 121.631 119.945 121.23 119.945ZM124.287 122.895V126H123.037V120.697H124.229V121.596H124.297C124.541 121 125.078 120.629 125.869 120.629C126.973 120.629 127.695 121.352 127.686 122.621V126H126.445V122.816C126.445 122.104 126.064 121.684 125.41 121.684C124.746 121.684 124.287 122.123 124.287 122.895ZM128.936 126V118.93H130.186V121.566H130.234C130.43 121.186 130.811 120.629 131.748 120.629C132.979 120.629 133.945 121.586 133.945 123.354C133.945 125.102 132.998 126.098 131.758 126.098C130.84 126.098 130.43 125.551 130.234 125.16H130.156V126H128.936ZM130.156 123.344C130.156 124.379 130.605 125.072 131.406 125.072C132.236 125.072 132.676 124.35 132.676 123.344C132.676 122.357 132.246 121.645 131.406 121.645C130.605 121.645 130.156 122.318 130.156 123.344ZM137.236 126.107C135.693 126.107 134.697 125.014 134.697 123.373C134.697 121.723 135.693 120.629 137.236 120.629C138.789 120.629 139.775 121.723 139.775 123.373C139.775 125.014 138.789 126.107 137.236 126.107ZM137.246 125.111C138.096 125.111 138.516 124.34 138.516 123.363C138.516 122.396 138.096 121.615 137.246 121.615C136.377 121.615 135.957 122.396 135.957 123.363C135.957 124.34 136.377 125.111 137.246 125.111ZM141.553 120.697L142.627 122.66L143.721 120.697H145.039L143.438 123.344L145.068 126H143.76L142.627 124.086L141.523 126H140.195L141.816 123.344L140.234 120.697H141.553ZM153.027 118.9V119.789H152.178V123.764C152.578 123.729 152.974 123.695 153.35 123.646L153.398 124.428C151.572 124.74 149.531 124.779 147.998 124.779L147.871 123.891L148.936 123.881V119.789H148.096V118.9H153.027ZM154.902 118.041V121.459H156.26V122.348H154.902V126.869H153.818V118.041H154.902ZM149.99 123.861C150.366 123.856 150.747 123.842 151.133 123.822V119.789H149.99V123.861ZM159.131 118.324C160.469 118.324 161.465 119.154 161.475 120.316C161.465 121.488 160.469 122.309 159.131 122.309C157.783 122.309 156.787 121.488 156.787 120.316C156.787 119.154 157.783 118.324 159.131 118.324ZM159.131 119.223C158.389 119.223 157.842 119.643 157.842 120.316C157.842 121 158.389 121.43 159.131 121.43C159.873 121.43 160.42 121 160.42 120.316C160.42 119.643 159.873 119.223 159.131 119.223ZM163.984 118.041V122.504H162.891V118.041H163.984ZM163.984 122.885V125.189H159.209V125.902H164.248V126.762H158.145V124.389H162.9V123.734H158.125V122.885H163.984ZM174.99 118.041V126.879H173.896V118.041H174.99ZM170.234 118.686C171.562 118.686 172.529 119.896 172.539 121.801C172.529 123.725 171.562 124.926 170.234 124.926C168.896 124.926 167.93 123.725 167.93 121.801C167.93 119.896 168.896 118.686 170.234 118.686ZM170.234 119.662C169.482 119.662 168.975 120.453 168.975 121.801C168.975 123.158 169.482 123.949 170.234 123.949C170.977 123.949 171.484 123.158 171.484 121.801C171.484 120.453 170.977 119.662 170.234 119.662ZM184.346 122.27V123.139H176.289V122.27H179.785V121.43H177.275V118.441H183.369V119.291H178.359V120.57H183.418V121.43H180.85V122.27H184.346ZM180.303 123.646C182.207 123.646 183.35 124.223 183.359 125.258C183.35 126.283 182.207 126.869 180.303 126.869C178.379 126.869 177.227 126.283 177.227 125.258C177.227 124.223 178.379 123.646 180.303 123.646ZM180.303 124.477C179.014 124.477 178.32 124.75 178.33 125.258C178.32 125.766 179.014 126.029 180.303 126.029C181.562 126.029 182.266 125.766 182.275 125.258C182.266 124.75 181.562 124.477 180.303 124.477Z" fill="white"/>
<path d="M37.418 151.447C37.418 152.561 38.1406 153.605 39.498 154.035L38.9121 154.885C37.96 154.562 37.2764 153.918 36.9004 153.098C36.5098 154.035 35.7969 154.772 34.7812 155.129L34.1953 154.279C35.6211 153.781 36.3242 152.609 36.334 151.35V150.51H37.418V151.447ZM41.2559 150.041V152.189H42.4863V153.088H41.2559V155.324H40.1719V150.041H41.2559ZM38.3848 155.52C40.2109 155.51 41.334 156.135 41.3438 157.18C41.334 158.244 40.2109 158.859 38.3848 158.859C36.5391 158.859 35.3965 158.244 35.3965 157.18C35.3965 156.135 36.5391 155.51 38.3848 155.52ZM38.3848 156.369C37.1738 156.369 36.4805 156.662 36.4805 157.18C36.4805 157.727 37.1738 158 38.3848 158C39.5957 158 40.2695 157.727 40.2695 157.18C40.2695 156.662 39.5957 156.369 38.3848 156.369ZM50.5332 150.041V158.869H49.498V154.367H48.502V158.42H47.5059V150.207H48.502V153.498H49.498V150.041H50.5332ZM46.5098 151.086V151.965H44.3027V155.891C45.2646 155.881 46.0557 155.832 46.9492 155.666L47.0273 156.555C45.9629 156.77 45.0352 156.799 43.8047 156.809H43.209V151.086H46.5098ZM61.3047 150.051V156.428H60.2109V150.051H61.3047ZM61.5488 157.814V158.693H55.4648V155.783H56.5586V157.814H61.5488ZM56.4902 150.627C57.8281 150.627 58.8633 151.555 58.8633 152.834C58.8633 154.143 57.8281 155.051 56.4902 155.051C55.1426 155.051 54.1074 154.143 54.1074 152.834C54.1074 151.555 55.1426 150.627 56.4902 150.627ZM56.4902 151.574C55.7383 151.574 55.1621 152.072 55.1719 152.834C55.1621 153.615 55.7383 154.104 56.4902 154.104C57.2227 154.104 57.7988 153.615 57.7988 152.834C57.7988 152.072 57.2227 151.574 56.4902 151.574ZM67.1543 151.252C67.1543 152.619 68.4922 153.986 70.3379 154.309L69.8496 155.217C68.3701 154.904 67.1592 154.011 66.5879 152.824C66.002 154.001 64.791 154.899 63.3164 155.217L62.8379 154.309C64.6641 153.977 65.9922 152.609 66.002 151.252V150.598H67.1543V151.252ZM70.6602 156.848V157.746H62.5938V156.848H70.6602ZM75.7676 150.803V151.691H72.7012V153.264H75.6113V154.123H72.7012V155.939C74.0586 155.93 75.1182 155.881 76.3535 155.676L76.4512 156.555C75.0938 156.77 73.9121 156.818 72.3301 156.818H71.5977V150.803H75.7676ZM78.1504 150.041V153.459H79.5078V154.367H78.1504V158.869H77.0664V150.041H78.1504ZM84.625 150.686C85.9531 150.686 86.9102 151.896 86.9199 153.801C86.9102 155.725 85.9531 156.926 84.625 156.926C83.2871 156.926 82.3203 155.725 82.3301 153.801C82.3203 151.896 83.2871 150.686 84.625 150.686ZM84.625 151.662C83.8828 151.662 83.375 152.453 83.375 153.801C83.375 155.158 83.8828 155.949 84.625 155.949C85.377 155.949 85.875 155.158 85.875 153.801C85.875 152.453 85.377 151.662 84.625 151.662ZM89.166 150.041V153.43H90.5234V154.348H89.166V158.869H88.082V150.041H89.166ZM98.2383 150.041V158.879H97.1445V150.041H98.2383ZM93.4824 150.686C94.8105 150.686 95.7773 151.896 95.7871 153.801C95.7773 155.725 94.8105 156.926 93.4824 156.926C92.1445 156.926 91.1777 155.725 91.1777 153.801C91.1777 151.896 92.1445 150.686 93.4824 150.686ZM93.4824 151.662C92.7305 151.662 92.2227 152.453 92.2227 153.801C92.2227 155.158 92.7305 155.949 93.4824 155.949C94.2246 155.949 94.7324 155.158 94.7324 153.801C94.7324 152.453 94.2246 151.662 93.4824 151.662ZM106.881 150.041V158.879H105.787V150.041H106.881ZM104.342 150.842V151.73H101.178V155.832C102.804 155.827 103.824 155.778 104.996 155.568L105.104 156.467C103.844 156.701 102.701 156.75 100.836 156.75H100.084V150.842H104.342ZM115.26 150.588V154.26H111.002V150.588H115.26ZM112.076 151.447V153.41H114.186V151.447H112.076ZM117.887 150.041V155.07H116.812V150.041H117.887ZM118.072 155.588V156.408H115.553C115.655 157.092 116.715 157.844 118.404 158.01L118.033 158.84C116.603 158.693 115.519 158.127 114.986 157.395C114.435 158.137 113.341 158.684 111.9 158.84L111.529 158.01C113.219 157.863 114.303 157.111 114.4 156.408H111.891V155.588H114.43V154.816H115.523V155.588H118.072ZM124.02 150.539C124.732 150.539 125.348 150.803 125.768 151.242H127.877V150.041H128.961V155.236H127.877V154.113H125.768C125.348 154.553 124.728 154.812 124.02 154.807C122.691 154.816 121.686 153.918 121.686 152.678C121.686 151.428 122.691 150.539 124.02 150.539ZM124.02 151.467C123.258 151.467 122.721 151.936 122.721 152.678C122.721 153.4 123.258 153.889 124.02 153.889C124.752 153.889 125.289 153.4 125.299 152.678C125.289 151.936 124.752 151.467 124.02 151.467ZM125.973 155.422C127.828 155.422 128.99 156.057 128.99 157.141C128.99 158.225 127.828 158.859 125.973 158.859C124.127 158.859 122.965 158.225 122.975 157.141C122.965 156.057 124.127 155.422 125.973 155.422ZM125.973 156.252C124.742 156.252 124.029 156.564 124.039 157.141C124.029 157.697 124.742 158.01 125.973 158.01C127.223 158.01 127.926 157.697 127.926 157.141C127.926 156.564 127.223 156.252 125.973 156.252ZM126.256 152.111C126.305 152.292 126.334 152.478 126.334 152.678C126.334 152.873 126.305 153.059 126.266 153.234H127.877V152.111H126.256ZM138.268 154.455V155.324H134.859V156.945H133.785V155.324H130.201V154.455H138.268ZM137.232 150.441V153.635H131.227V150.441H137.232ZM132.281 151.291V152.785H136.158V151.291H132.281ZM137.379 157.814V158.693H131.178V156.135H132.262V157.814H137.379ZM143.883 158.107C142.281 158.107 141.305 157.043 141.305 155.383C141.305 153.742 142.301 152.629 143.814 152.629C145.113 152.629 146.236 153.439 146.236 155.305V155.695H142.535C142.55 156.599 143.082 157.131 143.893 157.131C144.439 157.131 144.811 156.896 144.967 156.584H146.188C145.963 157.502 145.113 158.107 143.883 158.107ZM142.545 154.846H145.045C145.035 154.123 144.557 153.596 143.834 153.596C143.082 153.596 142.584 154.167 142.545 154.846ZM148.111 152.697L149.186 154.66L150.279 152.697H151.598L149.996 155.344L151.627 158H150.318L149.186 156.086L148.082 158H146.754L148.375 155.344L146.793 152.697H148.111ZM154.801 155.305C154.801 157.15 154.254 158.674 153.336 159.992H152.164C152.838 159.016 153.512 157.053 153.512 155.305C153.512 153.557 152.838 151.594 152.164 150.627H153.336C154.254 151.936 154.801 153.469 154.801 155.305ZM159.791 150.998V151.867H157.271V153.312H159.635V154.162H157.271V155.881C158.36 155.871 159.117 155.832 160.016 155.695L160.104 156.584C159.078 156.76 158.209 156.789 156.832 156.789H156.236V150.998H159.791ZM163.531 150.041V158.869H162.486V154.387H161.578V158.439H160.553V150.197H161.578V153.508H162.486V150.041H163.531ZM171.949 150.051V156.77H170.865V155.031H169.557V154.162H170.865V153.176H169.557V152.297H170.865V150.051H171.949ZM169.508 151.027V151.896H164.576V151.027H166.549V150.041H167.633V151.027H169.508ZM167.076 152.258C168.277 152.258 169.137 152.961 169.146 153.977C169.137 154.992 168.277 155.695 167.076 155.695C165.885 155.695 165.025 154.992 165.035 153.977C165.025 152.961 165.885 152.258 167.076 152.258ZM167.076 153.107C166.471 153.117 166.041 153.439 166.051 153.977C166.041 154.533 166.471 154.855 167.076 154.855C167.682 154.855 168.121 154.533 168.121 153.977C168.121 153.439 167.682 153.117 167.076 153.107ZM172.145 157.814V158.693H166.129V156.193H167.232V157.814H172.145ZM180.211 157.814L179.498 157.111L181.637 154.982H176.451V153.957H181.637L179.498 151.828L180.211 151.125L183.551 154.465L180.211 157.814ZM190.084 152.697V153.654H189.039V156.408C189.039 156.916 189.293 157.023 189.605 157.023C189.752 157.023 189.996 157.014 190.152 157.004V158.02C190.006 158.049 189.762 158.068 189.449 158.068C188.512 158.068 187.789 157.609 187.799 156.613V153.654H187.037V152.697H187.799V151.428H189.039V152.697H190.084ZM190.797 156.506C190.797 155.314 191.783 154.963 192.77 154.904C193.136 154.88 193.897 154.836 194.127 154.826V154.406C194.127 153.879 193.785 153.576 193.17 153.576C192.613 153.576 192.271 153.83 192.174 154.211H190.973C191.061 153.312 191.871 152.629 193.199 152.629C194.205 152.629 195.367 153.039 195.367 154.455V158H194.176V157.268H194.137C193.902 157.717 193.404 158.107 192.574 158.107C191.559 158.107 190.797 157.551 190.797 156.506ZM191.998 156.496C191.998 156.955 192.369 157.189 192.896 157.189C193.648 157.189 194.137 156.691 194.137 156.096V155.656L192.965 155.734C192.369 155.783 191.998 156.027 191.998 156.496ZM198.893 158.107C197.291 158.107 196.314 157.043 196.314 155.383C196.314 153.742 197.311 152.629 198.824 152.629C200.123 152.629 201.246 153.439 201.246 155.305V155.695H197.545C197.56 156.599 198.092 157.131 198.902 157.131C199.449 157.131 199.82 156.896 199.977 156.584H201.197C200.973 157.502 200.123 158.107 198.893 158.107ZM197.555 154.846H200.055C200.045 154.123 199.566 153.596 198.844 153.596C198.092 153.596 197.594 154.167 197.555 154.846ZM203.463 154.895V158H202.213V150.93H203.434V153.596H203.502C203.746 153 204.254 152.629 205.074 152.629C206.178 152.629 206.9 153.342 206.9 154.621V158H205.66V154.816C205.66 154.094 205.27 153.684 204.615 153.684C203.941 153.684 203.463 154.123 203.463 154.895ZM208.639 159.992C208.395 159.992 208.15 159.982 207.994 159.963V158.967C208.15 158.977 208.355 158.986 208.521 158.986C208.824 158.986 209.078 158.957 209.293 158.391L209.4 158.107L207.467 152.697H208.785L210.016 156.701H210.074L211.305 152.697H212.623L210.494 158.645C210.191 159.494 209.635 159.992 208.639 159.992ZM215.572 158.107C213.971 158.107 212.994 157.043 212.994 155.383C212.994 153.742 213.99 152.629 215.504 152.629C216.803 152.629 217.926 153.439 217.926 155.305V155.695H214.225C214.239 156.599 214.771 157.131 215.582 157.131C216.129 157.131 216.5 156.896 216.656 156.584H217.877C217.652 157.502 216.803 158.107 215.572 158.107ZM214.234 154.846H216.734C216.725 154.123 216.246 153.596 215.523 153.596C214.771 153.596 214.273 154.167 214.234 154.846ZM221.207 158.107C219.664 158.107 218.668 157.014 218.668 155.373C218.668 153.723 219.664 152.629 221.207 152.629C222.76 152.629 223.746 153.723 223.746 155.373C223.746 157.014 222.76 158.107 221.207 158.107ZM221.217 157.111C222.066 157.111 222.486 156.34 222.486 155.363C222.486 154.396 222.066 153.615 221.217 153.615C220.348 153.615 219.928 154.396 219.928 155.363C219.928 156.34 220.348 157.111 221.217 157.111ZM225.963 154.895V158H224.713V152.697H225.904V153.596H225.973C226.217 153 226.754 152.629 227.545 152.629C228.648 152.629 229.371 153.352 229.361 154.621V158H228.121V154.816C228.121 154.104 227.74 153.684 227.086 153.684C226.422 153.684 225.963 154.123 225.963 154.895ZM236.637 150.539C238.502 150.539 239.928 151.525 239.928 153.029C239.928 154.553 238.502 155.539 236.637 155.539C234.781 155.539 233.355 154.553 233.365 153.029C233.355 151.525 234.781 150.539 236.637 150.539ZM236.637 151.418C235.357 151.408 234.41 152.053 234.41 153.029C234.41 154.025 235.357 154.65 236.637 154.65C237.926 154.65 238.863 154.025 238.863 153.029C238.863 152.053 237.926 151.408 236.637 151.418ZM240.689 156.867V157.756H232.623V156.867H240.689ZM249.332 156.945V157.844H241.266V156.945H244.742V155.51H242.223V152.619H247.301V151.525H242.203V150.646H248.375V153.479H243.307V154.621H248.58V155.51H245.816V156.945H249.332ZM255.455 151.848C255.455 152.795 256.168 153.723 257.555 154.094L257.066 154.924C256.041 154.655 255.318 154.069 254.928 153.312C254.532 154.143 253.79 154.787 252.75 155.09L252.232 154.23C253.629 153.859 254.371 152.883 254.371 151.848V151.818H252.525V150.959H254.371V150.002H255.465V150.959H257.301V151.818H255.455V151.848ZM259.244 150.041V152.092H260.475V152.99H259.244V155.1H258.16V150.041H259.244ZM259.371 155.51V156.379H257.037C257.242 157.111 258.233 157.795 259.742 158.01L259.352 158.84C257.97 158.645 256.925 158.054 256.412 157.248C255.904 158.049 254.869 158.625 253.502 158.82L253.102 158C254.615 157.79 255.597 157.131 255.807 156.379H253.463V155.51H259.371ZM268.297 150.041V158.869H267.203V150.041H268.297ZM265.66 150.979C265.66 153.605 264.645 155.842 261.549 157.307L260.982 156.438C263.292 155.339 264.366 153.845 264.557 151.838H261.432V150.979H265.66Z" fill="white"/>
<path d="M13.5361 189V184.228H14.6084V185.036H14.6699C14.8633 184.491 15.3467 184.166 15.9795 184.166C16.6299 184.166 17.0869 184.491 17.2715 185.036H17.3242C17.5352 184.509 18.0625 184.166 18.7568 184.166C19.627 184.166 20.2422 184.729 20.2422 185.792V189H19.126V185.968C19.126 185.37 18.7656 185.106 18.3086 185.106C17.7549 185.106 17.4385 185.484 17.4385 186.021V189H16.3486V185.924C16.3486 185.432 16.0146 185.106 15.54 185.106C15.0566 185.106 14.6611 185.502 14.6611 186.1V189H13.5361ZM23.4326 189.097C21.9912 189.097 21.1123 188.139 21.1123 186.645C21.1123 185.168 22.0088 184.166 23.3711 184.166C24.54 184.166 25.5508 184.896 25.5508 186.574V186.926H22.2197C22.2329 187.739 22.7119 188.218 23.4414 188.218C23.9336 188.218 24.2676 188.007 24.4082 187.726H25.5068C25.3047 188.552 24.54 189.097 23.4326 189.097ZM22.2285 186.161H24.4785C24.4697 185.511 24.0391 185.036 23.3887 185.036C22.7119 185.036 22.2637 185.55 22.2285 186.161ZM29.1279 185.59C29.0576 185.229 28.7588 185.001 28.2842 185.001C27.8008 185.001 27.4492 185.238 27.458 185.563C27.4492 185.81 27.6514 185.994 28.1348 186.108L28.9434 186.275C29.8486 186.478 30.2793 186.891 30.2881 187.576C30.2793 188.473 29.4971 189.097 28.249 189.097C27.0361 189.097 26.3154 188.552 26.2012 187.638H27.3438C27.4141 188.042 27.7305 188.244 28.249 188.244C28.7852 188.244 29.1455 188.024 29.1455 187.673C29.1455 187.4 28.9258 187.225 28.4512 187.119L27.6865 186.952C26.7988 186.776 26.3418 186.311 26.3418 185.625C26.3418 184.746 27.0977 184.166 28.2666 184.166C29.4092 184.166 30.1123 184.72 30.1914 185.59H29.1279ZM33.8477 185.59C33.7773 185.229 33.4785 185.001 33.0039 185.001C32.5205 185.001 32.1689 185.238 32.1777 185.563C32.1689 185.81 32.3711 185.994 32.8545 186.108L33.6631 186.275C34.5684 186.478 34.999 186.891 35.0078 187.576C34.999 188.473 34.2168 189.097 32.9688 189.097C31.7559 189.097 31.0352 188.552 30.9209 187.638H32.0635C32.1338 188.042 32.4502 188.244 32.9688 188.244C33.5049 188.244 33.8652 188.024 33.8652 187.673C33.8652 187.4 33.6455 187.225 33.1709 187.119L32.4062 186.952C31.5186 186.776 31.0615 186.311 31.0615 185.625C31.0615 184.746 31.8174 184.166 32.9863 184.166C34.1289 184.166 34.832 184.72 34.9111 185.59H33.8477ZM35.6406 187.655C35.6406 186.583 36.5283 186.267 37.416 186.214C37.7456 186.192 38.4312 186.152 38.6377 186.144V185.766C38.6377 185.291 38.3301 185.019 37.7764 185.019C37.2754 185.019 36.9678 185.247 36.8799 185.59H35.7988C35.8779 184.781 36.6074 184.166 37.8027 184.166C38.708 184.166 39.7539 184.535 39.7539 185.81V189H38.6816V188.341H38.6465C38.4355 188.745 37.9873 189.097 37.2402 189.097C36.3262 189.097 35.6406 188.596 35.6406 187.655ZM36.7217 187.646C36.7217 188.06 37.0557 188.271 37.5303 188.271C38.207 188.271 38.6465 187.822 38.6465 187.286V186.891L37.5918 186.961C37.0557 187.005 36.7217 187.225 36.7217 187.646ZM42.8916 190.89C41.626 190.89 40.8262 190.327 40.7471 189.431H41.8633C41.9424 189.844 42.3379 190.046 42.9092 190.046C43.5771 190.046 44.0166 189.756 44.0166 189.053V188.139H43.9639C43.7881 188.49 43.4102 188.93 42.584 188.93C41.4854 188.93 40.6152 188.13 40.6152 186.574C40.6152 185.001 41.4854 184.166 42.5928 184.166C43.4365 184.166 43.7881 184.667 43.9639 185.01H44.0166V184.228H45.124V189.079C45.124 190.301 44.1836 190.89 42.8916 190.89ZM42.8916 188.051C43.6123 188.051 44.0254 187.506 44.0254 186.592C44.0254 185.687 43.6211 185.08 42.8916 185.08C42.1445 185.08 41.7578 185.722 41.7578 186.592C41.7578 187.471 42.1533 188.051 42.8916 188.051ZM48.3145 189.097C46.873 189.097 45.9941 188.139 45.9941 186.645C45.9941 185.168 46.8906 184.166 48.2529 184.166C49.4219 184.166 50.4326 184.896 50.4326 186.574V186.926H47.1016C47.1147 187.739 47.5938 188.218 48.3232 188.218C48.8154 188.218 49.1494 188.007 49.29 187.726H50.3887C50.1865 188.552 49.4219 189.097 48.3145 189.097ZM47.1104 186.161H49.3604C49.3516 185.511 48.9209 185.036 48.2705 185.036C47.5938 185.036 47.1455 185.55 47.1104 186.161ZM54.8271 189V189.896H50.7139V189H54.8271ZM56.9365 182.637V189H55.7852V183.753H55.75L54.2646 184.702V183.656L55.8379 182.637H56.9365ZM58.835 189.07C58.457 189.07 58.1494 188.763 58.1494 188.385C58.1494 188.016 58.457 187.708 58.835 187.708C59.1953 187.708 59.5117 188.016 59.5117 188.385C59.5117 188.763 59.1953 189.07 58.835 189.07ZM61.7178 186.205V189H60.5928V182.637H61.6914V185.036H61.7529C61.9727 184.5 62.4297 184.166 63.168 184.166C64.1611 184.166 64.8115 184.808 64.8115 185.959V189H63.6953V186.135C63.6953 185.484 63.3438 185.115 62.7549 185.115C62.1484 185.115 61.7178 185.511 61.7178 186.205ZM68.2568 184.228V185.089H67.3164V187.567C67.3164 188.024 67.5449 188.121 67.8262 188.121C67.958 188.121 68.1777 188.112 68.3184 188.104V189.018C68.1865 189.044 67.9668 189.062 67.6855 189.062C66.8418 189.062 66.1914 188.648 66.2002 187.752V185.089H65.5146V184.228H66.2002V183.085H67.3164V184.228H68.2568ZM69.1182 189V184.228H70.1904V185.036H70.252C70.4453 184.491 70.9287 184.166 71.5615 184.166C72.2119 184.166 72.6689 184.491 72.8535 185.036H72.9062C73.1172 184.509 73.6445 184.166 74.3389 184.166C75.209 184.166 75.8242 184.729 75.8242 185.792V189H74.708V185.968C74.708 185.37 74.3477 185.106 73.8906 185.106C73.3369 185.106 73.0205 185.484 73.0205 186.021V189H71.9307V185.924C71.9307 185.432 71.5967 185.106 71.1221 185.106C70.6387 185.106 70.2432 185.502 70.2432 186.1V189H69.1182ZM78.0215 182.637V189H76.8965V182.637H78.0215ZM82.4336 181.96C84.2441 181.96 85.29 182.443 85.2988 183.322C85.29 184.21 84.2441 184.685 82.4336 184.693C80.623 184.685 79.5684 184.21 79.5684 183.322C79.5684 182.443 80.623 181.96 82.4336 181.96ZM82.4336 182.681C81.2207 182.681 80.5879 182.909 80.5967 183.322C80.5879 183.762 81.2207 183.964 82.4336 183.964C83.6641 183.964 84.2881 183.762 84.2881 183.322C84.2881 182.909 83.6641 182.681 82.4336 182.681ZM86.0635 185.115V185.897H78.8213V185.115H86.0635ZM85.1582 186.434V188.376H80.6406V188.965H85.3779V189.712H79.6826V187.682H84.2002V187.154H79.6738V186.434H85.1582ZM91.5918 183.463C91.5918 184.315 92.2334 185.15 93.4814 185.484L93.042 186.231C92.1191 185.99 91.4688 185.462 91.1172 184.781C90.7612 185.528 90.0933 186.108 89.1572 186.381L88.6914 185.607C89.9482 185.273 90.6162 184.395 90.6162 183.463V183.437H88.9551V182.663H90.6162V181.802H91.6006V182.663H93.2529V183.437H91.5918V183.463ZM95.002 181.837V183.683H96.1094V184.491H95.002V186.39H94.0264V181.837H95.002ZM95.1162 186.759V187.541H93.0156C93.2002 188.2 94.0923 188.815 95.4502 189.009L95.0986 189.756C93.855 189.58 92.9146 189.048 92.4531 188.323C91.9961 189.044 91.0645 189.562 89.834 189.738L89.4736 189C90.8359 188.811 91.7192 188.218 91.9082 187.541H89.7988V186.759H95.1162ZM103.149 181.837V189.782H102.165V181.837H103.149ZM100.776 182.681C100.776 185.045 99.8623 187.058 97.0762 188.376L96.5664 187.594C98.645 186.605 99.6118 185.26 99.7832 183.454H96.9707V182.681H100.776ZM109.548 182.61C109.539 183.472 110.189 184.228 111.473 184.518L111.024 185.291C110.075 185.054 109.407 184.562 109.056 183.894C108.691 184.632 108.001 185.194 107.034 185.449L106.568 184.685C107.86 184.368 108.528 183.524 108.528 182.61V182.171H109.548V182.61ZM113.072 181.846V189.773H112.105V181.846H113.072ZM106.437 186.021C107.887 186.021 109.873 186.003 111.587 185.766L111.657 186.46C110.972 186.592 110.26 186.68 109.565 186.732V189.536H108.581V186.785C107.852 186.816 107.162 186.82 106.56 186.82L106.437 186.021ZM121.457 185.766V186.548H118.39V188.007H117.396V186.548H114.197V185.766H121.457ZM120.657 188.824V189.624H115.085V187.269H116.069V188.824H120.657ZM117.818 182.013C119.532 182.013 120.666 182.637 120.666 183.639C120.666 184.641 119.532 185.256 117.818 185.256C116.104 185.256 114.971 184.641 114.971 183.639C114.971 182.637 116.104 182.013 117.818 182.013ZM117.818 182.786C116.729 182.786 116.017 183.094 116.025 183.639C116.017 184.166 116.729 184.474 117.818 184.474C118.917 184.474 119.62 184.166 119.62 183.639C119.62 183.094 118.917 182.786 117.818 182.786ZM126.713 182.188C127.917 182.18 128.796 182.865 128.796 183.858C128.796 184.834 127.917 185.528 126.713 185.52C125.518 185.528 124.647 184.834 124.647 183.858C124.647 182.865 125.518 182.18 126.713 182.188ZM126.713 182.979C126.062 182.971 125.588 183.313 125.597 183.858C125.588 184.395 126.062 184.72 126.713 184.72C127.39 184.72 127.864 184.395 127.864 183.858C127.864 183.313 127.39 182.971 126.713 182.979ZM130.765 181.846V189.773H129.798V181.846H130.765ZM124.129 186.064C125.562 186.064 127.565 186.038 129.279 185.783L129.35 186.504C128.664 186.636 127.952 186.719 127.258 186.768V189.536H126.273V186.829C125.54 186.86 124.85 186.864 124.252 186.873L124.129 186.064ZM138.499 181.837V189.782H137.523V181.837H138.499ZM134.948 184.359C134.948 185.572 135.687 186.864 136.97 187.4L136.434 188.147C135.52 187.765 134.838 186.97 134.474 186.012C134.118 187.027 133.432 187.875 132.505 188.279L131.978 187.523C133.243 186.961 133.973 185.625 133.973 184.359V183.946H132.224V183.164H133.973V182.004H134.939V183.164H136.653V183.946H134.948V184.359ZM146.937 188.051V188.859H139.677V188.051H142.806V186.759H140.538V184.157H145.108V183.173H140.521V182.382H146.075V184.931H141.514V185.959H146.26V186.759H143.772V188.051H146.937ZM156.2 181.837V189.791H155.216V181.837H156.2ZM151.92 182.417C153.115 182.417 153.985 183.507 153.994 185.221C153.985 186.952 153.115 188.033 151.92 188.033C150.716 188.033 149.846 186.952 149.846 185.221C149.846 183.507 150.716 182.417 151.92 182.417ZM151.92 183.296C151.243 183.296 150.786 184.008 150.786 185.221C150.786 186.442 151.243 187.154 151.92 187.154C152.588 187.154 153.045 186.442 153.045 185.221C153.045 184.008 152.588 183.296 151.92 183.296ZM164.62 185.643V186.425H157.369V185.643H160.516V184.887H158.257V182.197H163.741V182.962H159.232V184.113H163.785V184.887H161.474V185.643H164.62ZM160.981 186.882C162.695 186.882 163.724 187.4 163.732 188.332C163.724 189.255 162.695 189.782 160.981 189.782C159.25 189.782 158.213 189.255 158.213 188.332C158.213 187.4 159.25 186.882 160.981 186.882ZM160.981 187.629C159.821 187.629 159.197 187.875 159.206 188.332C159.197 188.789 159.821 189.026 160.981 189.026C162.115 189.026 162.748 188.789 162.757 188.332C162.748 187.875 162.115 187.629 160.981 187.629ZM168.153 183.744C168.145 185.203 168.909 186.662 170.201 187.216L169.621 187.998C168.707 187.576 168.035 186.732 167.67 185.695C167.305 186.816 166.624 187.73 165.657 188.183L165.06 187.365C166.387 186.794 167.16 185.273 167.16 183.744V182.479H168.153V183.744ZM171.757 181.837V189.791H170.772V181.837H171.757ZM177.18 182.426C177.171 184.597 176.151 186.126 173.462 186.979L173.084 186.205C174.319 185.827 175.11 185.313 175.589 184.693L173.216 184.878L173.066 184.104L175.976 183.99C176.063 183.744 176.121 183.485 176.151 183.217H173.471V182.426H177.18ZM179.544 181.846V187.611H178.56V181.846H179.544ZM179.764 188.868V189.659H174.288V187.163H175.272V188.868H179.764ZM189.484 181.846V189.773H188.518V181.846H189.484ZM182.813 186.1C184.36 186.091 186.303 186.091 188.025 185.906L188.069 186.627C187.371 186.732 186.654 186.798 185.951 186.838V189.536H184.976V186.882C184.255 186.904 183.561 186.908 182.928 186.908L182.813 186.1ZM187.489 184.43V185.221H183.534V182.276H187.393V183.05H184.51V184.43H187.489ZM195.689 183.744C195.689 185.221 196.393 186.671 197.658 187.225L197.069 188.007C196.168 187.567 195.536 186.724 195.197 185.687C194.85 186.781 194.204 187.69 193.29 188.156L192.675 187.365C193.967 186.759 194.688 185.229 194.696 183.744V182.479H195.689V183.744ZM199.416 181.837V189.791H198.449V185.194H196.779V184.403H198.449V181.837H199.416ZM207.142 181.837V189.791H206.157V181.837H207.142ZM201.93 182.487V184.474H203.854V182.487H204.821V187.919H200.954V182.487H201.93ZM201.93 187.119H203.854V185.238H201.93V187.119ZM212.415 182.927C212.415 184.157 213.619 185.388 215.28 185.678L214.841 186.495C213.509 186.214 212.419 185.41 211.905 184.342C211.378 185.401 210.288 186.209 208.961 186.495L208.53 185.678C210.174 185.379 211.369 184.148 211.378 182.927V182.338H212.415V182.927ZM215.57 187.963V188.771H208.311V187.963H215.57ZM222.944 181.837V189.782H222.004V181.837H222.944ZM221.31 181.978V189.396H220.378V185.616H219.622C219.53 187.163 218.866 188.121 217.882 188.112C216.845 188.121 216.168 187.022 216.168 185.273C216.168 183.524 216.845 182.443 217.882 182.443C218.844 182.443 219.499 183.34 219.613 184.825H220.378V181.978H221.31ZM217.882 183.366C217.381 183.357 217.064 184.034 217.073 185.273C217.064 186.513 217.381 187.189 217.882 187.181C218.409 187.189 218.726 186.513 218.726 185.273C218.726 184.034 218.409 183.357 217.882 183.366ZM226.803 183.744C226.803 185.221 227.506 186.671 228.771 187.225L228.183 188.007C227.282 187.567 226.649 186.724 226.311 185.687C225.963 186.781 225.317 187.69 224.403 188.156L223.788 187.365C225.08 186.759 225.801 185.229 225.81 183.744V182.479H226.803V183.744ZM230.529 181.837V189.791H229.562V185.194H227.893V184.403H229.562V181.837H230.529ZM235.987 182.188C237.016 182.18 237.824 182.773 238.026 183.647H239.459V181.837H240.435V186.1H239.459V184.438H238.035C237.837 185.331 237.02 185.933 235.987 185.933C234.766 185.933 233.887 185.15 233.887 184.052C233.887 182.971 234.766 182.18 235.987 182.188ZM235.987 183.006C235.302 183.006 234.818 183.41 234.818 184.052C234.818 184.685 235.302 185.106 235.987 185.106C236.655 185.106 237.13 184.685 237.139 184.052C237.13 183.41 236.655 183.006 235.987 183.006ZM236.163 186.469V187.312H239.459V186.469H240.435V189.686H235.196V186.469H236.163ZM236.163 188.895H239.459V188.068H236.163V188.895ZM248.819 188.051V188.859H241.56V188.051H244.688V186.759H242.421V184.157H246.991V183.173H242.403V182.382H247.958V184.931H243.396V185.959H248.143V186.759H245.655V188.051H248.819ZM255.789 185.563V186.346H250.217V182.531H255.728V183.322H251.184V185.563H255.789ZM256.598 187.963V188.771H249.338V187.963H256.598ZM263.128 183.103V183.885H259.234V183.103H260.711V182.065H261.678V183.103H263.128ZM261.194 184.307C262.205 184.307 262.926 185.071 262.926 186.152C262.926 187.251 262.205 188.024 261.194 188.024C260.192 188.024 259.454 187.251 259.463 186.152C259.454 185.071 260.192 184.307 261.194 184.307ZM261.194 185.115C260.676 185.115 260.315 185.528 260.324 186.152C260.315 186.794 260.676 187.198 261.194 187.189C261.704 187.198 262.064 186.794 262.064 186.152C262.064 185.528 261.704 185.115 261.194 185.115ZM266.081 181.837V189.782H265.149V185.897H264.376V189.422H263.462V182.004H264.376V185.106H265.149V181.837H266.081ZM274.272 186.267V187.058H271.117V189.773H270.15V187.058H267.03V186.267H274.272ZM273.604 182.285V183.059H271.223C271.28 183.929 272.326 184.764 273.895 184.966L273.543 185.73C272.189 185.542 271.135 184.922 270.651 184.061C270.168 184.922 269.113 185.542 267.777 185.73L267.408 184.966C268.968 184.764 270.014 183.929 270.089 183.059H267.698V182.285H273.604ZM277.287 183.92C277.287 185.203 277.735 186.539 278.808 187.216L278.271 187.963C277.555 187.532 277.089 186.79 276.83 185.915C276.54 186.877 276.03 187.69 275.283 188.147L274.677 187.418C275.828 186.715 276.347 185.317 276.347 183.964V182.54H277.287V183.92ZM281.664 181.837V189.782H280.724V181.837H281.664ZM280.012 181.978V189.396H279.089V185.379H277.955V184.57H279.089V181.978H280.012ZM289.847 188.016V188.815H282.587V188.016H284.266V186.003C283.633 185.643 283.25 185.076 283.255 184.368C283.246 183.103 284.494 182.268 286.199 182.268C287.913 182.268 289.161 183.103 289.161 184.368C289.161 185.062 288.792 185.621 288.177 185.985V188.016H289.847ZM286.199 183.041C285.013 183.041 284.204 183.542 284.213 184.368C284.204 185.186 285.013 185.695 286.199 185.695C287.386 185.695 288.203 185.186 288.203 184.368C288.203 183.542 287.386 183.041 286.199 183.041ZM285.232 188.016H287.184V186.354C286.88 186.425 286.551 186.46 286.199 186.46C285.856 186.46 285.531 186.425 285.232 186.363V188.016Z" fill="white"/>
</svg>
