<svg width="25" height="25" viewBox="0 0 25 25" fill="none" xmlns="http://www.w3.org/2000/svg">
<path d="M23.7276 12.5C24.4304 12.5 25.0068 13.0712 24.9354 13.7704C24.6605 16.4617 23.5177 19.0043 21.6616 21.0039C19.5157 23.3158 16.5751 24.7309 13.4295 24.9654C10.284 25.2 7.16602 24.2366 4.70098 22.2686C2.23594 20.3005 0.606094 17.4733 0.138292 14.3539C-0.32951 11.2344 0.399326 8.05347 2.17864 5.44892C3.95795 2.84436 6.65616 1.0088 9.73217 0.310332C12.8082 -0.388132 16.0345 0.102156 18.7642 1.68287C21.1251 3.05006 22.9635 5.14556 24.0157 7.63791C24.2891 8.28533 23.9056 9.0005 23.2337 9.20664C22.5619 9.41278 21.8575 9.03055 21.5674 8.39047C20.7151 6.50991 19.2937 4.93032 17.4888 3.88515C15.3149 2.62626 12.7454 2.23579 10.2957 2.79206C7.84593 3.34832 5.69705 4.81018 4.27999 6.88447C2.86294 8.95876 2.28249 11.4921 2.65505 13.9764C3.02761 16.4608 4.32563 18.7124 6.28881 20.2798C8.25199 21.8471 10.7351 22.6144 13.2403 22.4276C15.7455 22.2408 18.0874 21.1138 19.7964 19.2726C21.2153 17.744 22.1108 15.8169 22.374 13.7691C22.4635 13.0721 23.0249 12.5 23.7276 12.5Z" fill="#FF0000"/>
</svg>
