<svg width="139" height="69" viewBox="0 0 139 69" fill="none" xmlns="http://www.w3.org/2000/svg">
<path d="M100.018 42.816C99.3348 42.8587 98.6735 42.7733 98.0335 42.56C97.4362 42.304 96.7322 41.9413 95.9215 41.472C94.9828 40.9174 94.3642 40.0213 94.0655 38.784C93.9802 38.1867 93.9375 37.76 93.9375 37.504C93.9375 37.2053 93.9802 36.8 94.0655 36.288L95.7295 28.096C95.7295 28.0107 95.8362 27.6053 96.0495 26.88C96.3055 26.1547 96.4122 25.6 96.3695 25.216C97.5215 22.784 99.0148 20.928 100.85 19.648C100.978 19.5627 101.212 19.4773 101.554 19.392C101.852 19.3067 102.087 19.2213 102.257 19.136C102.471 19.0507 102.706 18.9013 102.962 18.688C103.303 18.7307 103.687 19.008 104.114 19.52C104.54 20.032 104.818 20.3307 104.946 20.416C105.33 20.032 105.628 19.7973 105.841 19.712C107.207 18.688 108.551 17.8133 109.874 17.088C111.879 16.0213 113.842 15.1467 115.762 14.464C116.786 14.08 118.13 13.6533 119.794 13.184C120.348 13.0133 121.074 12.928 121.97 12.928C123.122 13.0133 124.103 13.4613 124.913 14.272C125.297 14.656 125.532 14.9547 125.618 15.168C126.215 14.656 126.791 14.1013 127.346 13.504C127.9 12.864 128.412 12.2667 128.882 11.712V11.328C128.882 10.9013 128.86 10.6027 128.818 10.432C128.775 10.2613 128.754 10.0267 128.754 9.72802C128.754 9.04535 128.988 8.42668 129.458 7.87201C129.671 7.53068 129.97 7.36002 130.354 7.36002C130.567 7.36002 130.801 7.42402 131.057 7.55201C131.228 7.68001 131.442 7.78668 131.698 7.87201C131.954 7.91468 132.209 7.95735 132.465 8.00002C134.044 8.17068 135.239 8.70402 136.049 9.60001C136.007 9.81335 135.836 10.1973 135.538 10.752C135.452 11.0507 135.367 11.3493 135.281 11.648C135.196 11.9467 135.132 12.2453 135.09 12.544C134.919 14.336 134.62 16.2133 134.194 18.176C133.81 19.712 133.66 20.9493 133.745 21.888C133.745 22.0587 133.703 22.3573 133.618 22.784C133.404 23.5093 133.212 24.6827 133.042 26.304L132.658 28.864C132.572 29.2053 132.465 29.568 132.337 29.952C132.209 30.2933 132.082 30.656 131.954 31.04C131.783 31.5093 131.612 31.9787 131.441 32.448C131.228 32.8747 130.994 33.3227 130.738 33.792L129.458 35.84C129.159 36.3093 128.647 36.608 127.922 36.736L127.154 36.8C126.599 36.8 126.087 36.6294 125.618 36.288C126.3 35.52 126.556 34.496 126.385 33.216C126.3 31.9787 126.599 30.2933 127.281 28.16C127.836 26.1973 128.22 24.2133 128.434 22.208L128.689 19.712C128.306 20.096 127.879 20.6507 127.41 21.376C126.94 22.0587 126.556 22.656 126.258 23.168C126.002 23.68 125.66 24.2133 125.234 24.768C124.807 25.28 124.402 25.792 124.018 26.304C123.164 27.3707 122.674 27.9893 122.546 28.16C121.906 29.4827 120.69 30.9974 118.898 32.704L117.81 33.664C116.572 34.688 115.569 35.6907 114.801 36.672C114.759 36.7573 114.631 36.864 114.418 36.992C114.162 37.0773 113.927 37.12 113.714 37.12C113.159 37.12 112.647 36.992 112.178 36.736C111.708 36.48 111.41 36.1173 111.282 35.648C111.068 34.9227 110.578 33.9627 109.81 32.768C109.895 31.9573 110.279 31.488 110.962 31.36C111.644 31.2747 112.433 30.8267 113.329 30.016C114.097 29.2907 115.207 28.1173 116.658 26.496L117.554 25.536C118.791 24.2133 119.815 23.0187 120.626 21.952L121.906 20.416C123.143 19.008 123.996 17.9627 124.465 17.28C124.252 17.152 123.932 17.0453 123.506 16.96C123.079 16.832 122.674 16.768 122.29 16.768C121.906 16.768 121.095 17.0027 119.857 17.472C118.62 17.9413 117.34 18.4533 116.018 19.008C115.292 19.3493 114.738 19.648 114.354 19.904C113.969 20.1173 113.65 20.4587 113.394 20.928C113.223 21.1413 112.967 21.3547 112.626 21.568C112.327 21.7387 112.028 21.9094 111.729 22.08C110.194 23.104 108.956 24.2987 108.018 25.664C108.956 27.0294 109.511 27.8613 109.682 28.16C110.023 28.7147 110.194 29.248 110.194 29.76C110.194 30.144 110.151 30.4213 110.066 30.592C109.81 31.232 109.575 32 109.362 32.896L108.53 35.136C107.463 37.824 105.756 39.872 103.41 41.28C102.343 42.0053 101.404 42.4534 100.593 42.624L100.018 42.816ZM98.9295 38.784C99.0575 38.784 99.1642 38.8053 99.2495 38.848C99.4628 38.848 99.6762 38.7627 99.8895 38.592C100.103 38.3787 100.316 38.208 100.53 38.08L102.002 36.736C102.898 35.84 103.687 34.6027 104.369 33.024C104.412 32.9387 104.434 32.8107 104.434 32.64C104.434 32.2987 104.327 32.0213 104.114 31.808C103.474 31.1253 102.471 30.3147 101.105 29.376C100.551 30.6987 100.167 32.0427 99.9535 33.408C99.9108 33.6213 99.7615 34.2187 99.5055 35.2C99.3348 35.9254 99.1642 36.672 98.9935 37.44C98.8655 38.1653 98.8442 38.6133 98.9295 38.784ZM121.778 48.896C120.114 48.896 118.876 48.8107 118.066 48.64C117.298 48.4693 116.572 48.1067 115.89 47.552C115.164 46.9547 114.801 45.9947 114.801 44.672C114.801 43.9467 114.887 43.3067 115.058 42.752C115.996 39.7653 117.49 37.6747 119.538 36.48L120.562 36.16H120.754C121.138 36.16 121.415 36.352 121.586 36.736C121.927 37.5467 122.098 38.3787 122.098 39.232C122.098 40.0854 121.884 40.8533 121.458 41.536C121.372 41.536 121.266 41.5573 121.138 41.6C121.052 41.6427 120.988 41.6427 120.946 41.6C120.69 41.472 120.476 41.408 120.306 41.408C120.135 41.408 119.922 41.4934 119.666 41.664C118.983 42.0053 118.386 42.5173 117.874 43.2C117.404 43.84 117.17 44.416 117.17 44.928C117.17 45.5253 117.34 45.9307 117.682 46.144C118.194 46.528 119.73 46.72 122.29 46.72C123.399 46.72 124.38 46.6773 125.234 46.592C126.13 46.5067 127.175 46.2934 128.37 45.952C129.394 45.696 130.226 45.44 130.866 45.184C131.548 44.8853 132.38 44.416 133.362 43.776C133.831 43.4773 134.236 43.2 134.577 42.944C134.961 42.6453 135.303 42.2827 135.602 41.856C135.858 41.5147 136.114 41.1947 136.37 40.896C136.626 40.5973 136.86 40.384 137.074 40.256C137.33 40.128 137.543 40.064 137.714 40.064C137.927 40.064 138.162 40.2133 138.418 40.512C138.631 40.768 138.738 41.1093 138.738 41.536C138.738 41.8773 138.652 42.1973 138.482 42.496C138.14 42.9654 137.692 43.4133 137.138 43.84C136.626 44.2667 135.879 44.8214 134.898 45.504C134.172 45.9734 133.212 46.4853 132.018 47.04C130.866 47.552 129.991 47.872 129.393 48C126.279 48.5973 123.74 48.896 121.778 48.896Z" fill="#FF0000"/>
<path d="M57.31 31.232C56.9687 31.104 56.67 30.9333 56.414 30.72C56.2007 30.464 55.8807 30.0373 55.454 29.44C55.1553 29.0133 55.006 28.48 55.006 27.84C55.006 26.56 55.4967 25.152 56.478 23.616C57.4593 22.2507 58.206 21.056 58.718 20.032C58.846 19.8187 58.9953 19.648 59.166 19.52C59.7207 18.9227 60.0193 18.3467 60.062 17.792C60.1473 17.5787 60.2327 17.3867 60.318 17.216C60.446 17.0027 60.574 16.7893 60.702 16.576C60.8727 16.3627 61.022 16.1493 61.15 15.936C61.278 15.68 61.3633 15.424 61.406 15.168C60.894 15.3387 60.1047 15.808 59.038 16.576C58.014 17.344 57.182 18.048 56.542 18.688L52.446 22.72H52.19C51.806 22.72 51.4007 22.5493 50.974 22.208C50.718 22.08 50.2913 21.7173 49.694 21.12C48.5847 19.8827 47.6887 19.1573 47.006 18.944C46.7927 18.816 46.5793 18.624 46.366 18.368C46.1953 18.1973 46.11 17.984 46.11 17.728C46.11 17.344 46.366 17.0667 46.878 16.896C47.0487 16.8107 47.326 16.768 47.71 16.768C48.478 16.4693 48.9687 16.2987 49.182 16.256L49.822 16.448C51.6993 15.2533 53.1287 14.3787 54.11 13.824L58.718 11.264L61.982 9.664C62.1953 9.57867 62.4513 9.42933 62.75 9.216C63.0913 8.96 63.4327 8.704 63.774 8.448C64.8407 8.448 66.078 8.68267 67.486 9.152C67.9127 9.28 68.318 9.55733 68.702 9.984C69.086 10.368 69.2567 10.7307 69.214 11.072C69.1713 11.328 69.1286 11.6053 69.086 11.904C69.086 12.16 69.0647 12.4373 69.022 12.736C69.022 12.9493 69.0007 13.0987 68.958 13.184C68.6167 13.7813 68.318 14.336 68.062 14.848L66.974 16.704L66.014 18.112C65.886 18.3253 65.8007 18.5387 65.758 18.752C65.758 18.9227 65.7367 19.072 65.694 19.2L68.83 20.352C69.342 20.5653 69.662 20.7787 69.79 20.992C69.918 21.2053 69.9393 21.5253 69.854 21.952C69.726 22.6773 69.5553 23.2533 69.342 23.68C69.0433 24.3627 68.702 25.0453 68.318 25.728C67.934 26.368 67.5073 26.9653 67.038 27.52C66.91 27.648 66.846 27.712 66.846 27.712C66.5473 28.224 65.9713 28.8213 65.118 29.504C64.3073 30.1867 63.4967 30.7413 62.686 31.168C61.4487 31.8933 60.4247 32.1707 59.614 32L57.31 31.232ZM60.382 29.248C60.5527 29.248 60.8513 29.1413 61.278 28.928C62.2593 28.3307 63.0487 27.6907 63.646 27.008C64.286 26.3253 65.1607 25.2373 66.27 23.744C66.3553 23.5733 66.3767 23.424 66.334 23.296C66.2913 23.168 66.206 23.0827 66.078 23.04C65.7367 22.8693 65.3953 22.6347 65.054 22.336C64.7553 22.0373 64.4567 21.7387 64.158 21.44C63.39 22.1653 62.5793 23.4027 61.726 25.152C60.8727 26.8587 60.382 28.224 60.254 29.248H60.382ZM51.678 9.728C51.3793 9.55733 50.974 9.36533 50.462 9.152C49.95 8.896 49.502 8.64 49.118 8.384C48.734 8.128 48.5207 7.85067 48.478 7.552C48.6913 7.12533 48.8833 6.69867 49.054 6.272C49.182 6.10133 49.63 5.78133 50.398 5.312C51.166 4.84267 51.806 4.45867 52.318 4.16C53.3847 3.69067 54.7713 3.24266 56.478 2.816C58.2273 2.38933 59.7207 2.176 60.958 2.176C61.3847 2.176 61.854 2.21866 62.366 2.304C62.5793 2.34667 62.878 2.60267 63.262 3.072C63.646 3.54133 63.8593 3.79733 63.902 3.84C64.03 3.92533 64.1793 3.968 64.35 3.968C64.5633 3.968 64.7127 3.98933 64.798 4.032L65.118 4.288C63.7527 6.29333 61.79 7.82933 59.23 8.896C59.0593 8.93867 58.91 8.91733 58.782 8.832C58.6967 8.74667 58.6967 8.64 58.782 8.512C58.9527 8.384 59.1873 8.21333 59.486 8C59.8273 7.78667 59.9767 7.63733 59.934 7.552C59.806 7.50933 59.4433 7.57333 58.846 7.744C58.2913 7.91467 57.6727 8.128 56.99 8.384C55.5393 8.93867 54.366 9.344 53.47 9.6C52.574 9.856 51.9767 9.89867 51.678 9.728ZM77.15 23.232C76.894 23.0613 76.6807 22.8907 76.51 22.72C76.382 22.5493 76.2967 22.3147 76.254 22.016C76.126 21.5467 76.062 21.0987 76.062 20.672C76.062 20.2453 76.0833 19.9253 76.126 19.712C76.126 18.5173 76.2327 17.216 76.446 15.808C76.7446 13.8027 77.0007 11.7333 77.214 9.6L77.406 6.912C77.406 6.144 77.4273 5.54667 77.47 5.12V4.48C77.47 3.712 77.406 3.2 77.278 2.944C77.1927 2.64533 77.022 2.496 76.766 2.496C76.5953 2.496 76.3607 2.41066 76.062 2.24C75.7633 2.02666 75.5287 1.89867 75.358 1.856L75.166 1.344C75.422 0.447999 76.1473 0 77.342 0C78.366 0 79.4327 0.170666 80.542 0.511997C81.694 0.853331 82.5687 1.32266 83.166 1.92C83.5927 2.304 83.8487 2.88 83.934 3.648C83.934 4.032 83.9553 4.43733 83.998 4.864C84.0407 5.248 84.0407 5.65333 83.998 6.08L83.87 7.232L83.486 10.112C83.7847 10.0267 84.382 9.792 85.278 9.408L88.158 8.512C89.438 8.08533 90.1847 7.97866 90.398 8.192C90.9527 8.66133 91.4647 9.13067 91.934 9.6L91.998 9.728C91.87 10.4107 91.6567 10.9227 91.358 11.264C91.0593 11.6053 90.4833 12.1173 89.63 12.8C89.374 12.9707 89.1607 13.0773 88.99 13.12C88.8193 13.1627 88.6273 13.1413 88.414 13.056C88.7127 12.7147 88.9047 12.4373 88.99 12.224C89.118 12.0107 89.2033 11.7333 89.246 11.392C88.0513 11.6053 86.9633 11.9467 85.982 12.416C85.598 12.6293 85.1287 12.8853 84.574 13.184C84.062 13.4827 83.678 13.6747 83.422 13.76L82.782 16.832C82.014 17.2587 81.63 17.8987 81.63 18.752C81.5447 19.3493 81.438 19.8187 81.31 20.16C81.182 20.5013 80.9687 20.8 80.67 21.056C80.5847 21.184 80.4993 21.4187 80.414 21.76L80.222 22.72L80.798 22.592C81.438 22.2507 81.822 22.0587 81.95 22.016C82.1207 21.9733 82.334 21.9947 82.59 22.08L84.19 23.104C84.6593 23.1893 84.958 23.4027 85.086 23.744C85.214 24.128 85.278 24.64 85.278 25.28L85.214 25.92C85.214 26.0053 85.1713 26.1333 85.086 26.304C85.0433 26.432 84.9793 26.5173 84.894 26.56C84.8513 26.688 84.7873 26.8373 84.702 27.008C84.6593 27.136 84.6167 27.3067 84.574 27.52C84.3607 27.8187 84.126 28.1387 83.87 28.48C83.8273 28.608 83.7847 28.672 83.742 28.672C83.4433 28.8853 83.2513 29.056 83.166 29.184C82.8246 29.7387 82.5687 30.08 82.398 30.208C82.27 30.208 82.206 30.272 82.206 30.4C82.1633 30.4853 82.1207 30.5707 82.078 30.656C82.0353 30.6987 81.95 30.72 81.822 30.72C81.7367 30.7627 81.63 30.8267 81.502 30.912C81.502 30.9973 81.4593 31.0613 81.374 31.104C81.3313 31.104 81.31 31.1253 81.31 31.168C81.31 31.2533 81.2033 31.4027 80.99 31.616C80.8193 31.7867 80.6913 31.9573 80.606 32.128C80.606 32.2133 80.5207 32.32 80.35 32.448C80.35 32.4907 80.35 32.5333 80.35 32.576C80.35 32.6187 80.3287 32.64 80.286 32.64C80.2007 32.6827 80.1153 32.768 80.03 32.896C79.9873 32.9813 79.9447 33.0667 79.902 33.152C79.8167 33.4507 79.71 33.6213 79.582 33.664C79.582 33.7067 79.5607 33.7707 79.518 33.856C79.4753 33.8987 79.4327 33.9413 79.39 33.984L79.326 34.24C79.326 34.4107 79.262 34.5813 79.134 34.752C79.0487 34.88 78.942 35.008 78.814 35.136C78.7287 35.3067 78.622 35.4987 78.494 35.712L78.174 36.352C78.174 36.5227 78.1313 36.672 78.046 36.8C78.046 36.9707 78.0887 37.0773 78.174 37.12C78.2593 37.1627 78.494 37.184 78.878 37.184H80.734L82.206 37.248C82.8887 37.248 83.614 37.3333 84.382 37.504C84.9793 37.6747 85.5767 37.8667 86.174 38.08C86.558 38.1653 86.9207 38.336 87.262 38.592L87.71 38.912C87.966 39.168 88.094 39.296 88.094 39.296L88.67 39.808C88.926 40.0213 89.054 40.4053 89.054 40.96L88.99 41.792L88.862 42.368C88.734 42.624 88.478 42.9867 88.094 43.456C87.454 44.224 87.006 44.736 86.75 44.992C86.238 45.504 85.8327 45.8667 85.534 46.08C85.4487 46.1227 85.342 46.1653 85.214 46.208C85.086 46.2933 84.958 46.4213 84.83 46.592C84.7447 46.72 84.6593 46.848 84.574 46.976C84.574 46.976 84.3393 47.2107 83.87 47.68C83.8273 47.7653 83.5927 47.9787 83.166 48.32C83.0807 48.32 82.9953 48.3413 82.91 48.384C82.8673 48.4267 82.846 48.4907 82.846 48.576C82.7607 48.6613 82.6113 48.7893 82.398 48.96L81.694 49.6C81.5233 49.6853 81.054 50.0693 80.286 50.752L79.198 51.776C78.814 52.16 78.5153 52.3947 78.302 52.48L78.174 52.672C78.1313 52.7147 78.11 52.736 78.11 52.736C78.11 52.736 78.0887 52.7573 78.046 52.8C77.8753 52.8853 77.6833 53.0347 77.47 53.248C77.2567 53.4613 77.1073 53.6107 77.022 53.696C76.9793 53.824 76.638 54.1653 75.998 54.72C75.102 55.5307 74.6113 56 74.526 56.128C74.4833 56.1707 74.4407 56.192 74.398 56.192C74.398 56.192 74.3766 56.2133 74.334 56.256C73.822 56.8533 73.2247 57.408 72.542 57.92C72.4993 58.048 72.4567 58.112 72.414 58.112C72.158 58.4107 71.902 58.7307 71.646 59.072C71.39 59.4133 71.1553 59.6907 70.942 59.904C70.814 60.032 70.6647 60.1813 70.494 60.352C70.366 60.5653 70.2167 60.736 70.046 60.864L69.854 61.184L69.278 62.08L69.022 62.592C68.7233 62.8907 68.4673 63.232 68.254 63.616C68.0833 64.0427 67.9767 64.4053 67.934 64.704L67.87 65.472C67.87 65.728 67.9767 65.9413 68.19 66.112C68.4033 66.2827 68.638 66.3893 68.894 66.432C69.15 66.5173 69.5767 66.56 70.174 66.56C71.2833 66.56 72.0727 66.496 72.542 66.368C74.6327 65.9413 76.4887 65.4507 78.11 64.896C78.9633 64.64 79.966 64.2347 81.118 63.68C81.6727 63.424 82.2913 63.1253 82.974 62.784C83.6993 62.4427 84.318 62.1227 84.83 61.824C85.47 61.4827 86.1527 61.0133 86.878 60.416C87.6033 59.8613 88.0727 59.4133 88.286 59.072C88.6273 58.688 88.8833 58.3253 89.054 57.984C89.1393 57.856 89.246 57.792 89.374 57.792C89.502 57.8347 89.6087 57.8773 89.694 57.92C89.822 58.0907 89.8647 58.2613 89.822 58.432C89.7793 58.6027 89.5873 59.0293 89.246 59.712C88.9473 60.224 88.606 60.672 88.222 61.056C88.0087 61.2693 87.71 61.5467 87.326 61.888C86.9847 62.2293 86.6007 62.4853 86.174 62.656C85.1073 63.424 84.446 63.8507 84.19 63.936C84.1047 63.9787 83.998 64 83.87 64C83.7847 64.0427 83.6993 64.0853 83.614 64.128C83.1446 64.512 82.6753 64.768 82.206 64.896C82.0353 65.024 81.8007 65.1307 81.502 65.216C81.246 65.344 80.99 65.4507 80.734 65.536C80.478 65.664 80.222 65.792 79.966 65.92C79.71 66.048 79.4753 66.1973 79.262 66.368C79.134 66.368 79.0273 66.4107 78.942 66.496C78.0887 66.6667 77.278 66.944 76.51 67.328L73.63 68.16C73.3313 68.2027 73.054 68.2667 72.798 68.352C72.542 68.4373 72.3073 68.5013 72.094 68.544C71.6673 68.6293 71.1767 68.672 70.622 68.672C70.11 68.7147 69.6833 68.7147 69.342 68.672C69.086 68.6293 68.7873 68.5867 68.446 68.544C68.1473 68.544 67.9127 68.5013 67.742 68.416C67.6567 68.3307 67.55 68.2667 67.422 68.224C67.294 68.224 67.1873 68.2027 67.102 68.16C66.718 67.9893 66.4833 67.8613 66.398 67.776C66.0993 67.6053 65.7793 67.264 65.438 66.752C65.182 66.368 65.0113 65.8773 64.926 65.28V64.896C64.926 64.64 64.9687 64.2987 65.054 63.872C65.31 62.976 65.502 62.4213 65.63 62.208L65.95 61.632C66.0353 61.5467 66.1207 61.4613 66.206 61.376C66.2913 61.2907 66.334 61.2053 66.334 61.12C66.334 60.9067 66.398 60.7573 66.526 60.672C66.654 60.544 66.718 60.4587 66.718 60.416C66.718 60.3307 66.782 60.2027 66.91 60.032C67.038 59.904 67.166 59.7973 67.294 59.712C67.3367 59.6693 67.358 59.648 67.358 59.648C67.358 59.648 67.3793 59.6267 67.422 59.584C67.422 59.3707 67.4647 59.2 67.55 59.072L67.87 58.624C67.87 58.5813 67.9767 58.4107 68.19 58.112C68.318 57.8987 68.5313 57.6853 68.83 57.472C68.8727 57.344 68.9367 57.2373 69.022 57.152C69.15 57.0667 69.2567 56.96 69.342 56.832C69.6833 56.7467 69.8753 56.704 69.918 56.704C70.0033 56.6187 70.0673 56.4693 70.11 56.256C70.1527 55.9573 70.2807 55.744 70.494 55.616C70.5367 55.488 70.6647 55.3813 70.878 55.296C70.878 55.2107 70.9846 55.168 71.198 55.168C71.2833 55.168 71.4327 55.0187 71.646 54.72C71.7313 54.464 71.9447 54.3147 72.286 54.272L72.99 53.504L73.182 53.312C73.5233 53.2267 73.8433 52.9707 74.142 52.544C74.1847 52.4587 74.27 52.3733 74.398 52.288C74.526 52.2453 74.654 52.1813 74.782 52.096C74.782 51.8827 74.974 51.6693 75.358 51.456L76.446 50.56L78.238 48.96C78.2807 48.8747 78.3447 48.8107 78.43 48.768C78.5153 48.7253 78.5793 48.6613 78.622 48.576L78.75 48.512C79.0486 48.128 79.326 47.8507 79.582 47.68L80.03 47.296C80.3713 47.1253 80.6273 46.8693 80.798 46.528C80.8407 46.4427 80.926 46.4 81.054 46.4C81.182 46.3147 81.246 46.2293 81.246 46.144C81.374 45.9307 81.4593 45.76 81.502 45.632L81.694 45.44C81.9926 45.3973 82.1847 45.2267 82.27 44.928C82.3553 44.8427 82.4407 44.7147 82.526 44.544C82.654 44.3307 82.7607 44.1813 82.846 44.096C83.3153 43.7973 83.614 43.4987 83.742 43.2L84.19 42.56L84.83 41.664L85.278 40.896C85.406 40.6827 85.3847 40.5333 85.214 40.448C84.83 40.32 84.446 40.2133 84.062 40.128H82.846C82.6753 40.1707 82.4193 40.192 82.078 40.192H81.502C81.118 40.192 80.8193 40.2347 80.606 40.32C80.4353 40.3627 80.2647 40.384 80.094 40.384C79.966 40.384 79.8593 40.4053 79.774 40.448C79.646 40.5333 79.4967 40.5333 79.326 40.448H78.046L77.406 40.32C76.51 40.32 75.8487 40.0853 75.422 39.616C75.166 39.5733 74.974 39.5093 74.846 39.424C74.462 39.2533 74.0567 38.7413 73.63 37.888C73.4593 37.5467 73.374 37.12 73.374 36.608L73.438 36.096C73.438 36.0533 73.4167 35.9893 73.374 35.904C73.374 35.776 73.3953 35.648 73.438 35.52C73.566 35.0933 73.694 34.688 73.822 34.304L74.398 33.216C74.782 32.4053 75.102 31.936 75.358 31.808L75.486 31.488C75.6567 31.1467 75.806 30.912 75.934 30.784C76.19 30.528 76.574 30.016 77.086 29.248L78.174 27.776L79.07 26.496C78.6433 26.5387 78.174 26.7093 77.662 27.008C77.406 27.136 77.086 27.3067 76.702 27.52C76.3607 27.6907 75.998 27.904 75.614 28.16L75.038 28.416C74.9953 28.4587 74.9527 28.5013 74.91 28.544C74.8673 28.544 74.8247 28.5867 74.782 28.672C74.5687 28.8853 74.2487 29.0347 73.822 29.12C73.7793 29.1627 73.694 29.2053 73.566 29.248C73.4807 29.248 73.438 29.2693 73.438 29.312C73.2673 29.568 72.926 29.8667 72.414 30.208C71.902 30.7627 71.454 31.1253 71.07 31.296C70.8993 31.424 70.7287 31.5093 70.558 31.552C70.302 31.6373 70.046 31.68 69.79 31.68C69.5767 31.68 69.4273 31.6373 69.342 31.552C69.2567 31.4667 69.15 31.4027 69.022 31.36C68.9367 31.2747 68.766 31.2107 68.51 31.168L68.382 30.912C68.3393 30.784 68.254 30.6987 68.126 30.656C68.0407 30.5707 67.934 30.4853 67.806 30.4V30.208C67.806 30.08 67.7847 29.9947 67.742 29.952L67.038 28.992C67.038 28.864 67.1447 28.8 67.358 28.8C67.6567 28.8 67.9553 28.672 68.254 28.416L69.854 27.008C70.494 26.5387 71.39 25.984 72.542 25.344C73.0113 25.088 73.5873 24.8107 74.27 24.512C74.9953 24.1707 75.5073 23.9573 75.806 23.872L77.47 23.36L77.15 23.232Z" fill="black"/>
<path d="M9.152 39.168L7.68 38.208H7.488L7.04 38.592C6.82667 38.8054 6.592 39.04 6.336 39.296C6.12267 39.552 5.952 39.7867 5.824 40H5.504C4.90667 39.4027 4.18133 38.9547 3.328 38.656C1.74933 38.4427 0.64 37.9094 0 37.056C0.298667 36.5867 0.448 36.0747 0.448 35.52L0.256 33.6C0.298667 32.96 0.341333 32.3414 0.384 31.744C0.469333 30.8907 0.512 30.272 0.512 29.888L0.704 27.776C0.789333 26.3254 0.896 25.024 1.024 23.872L1.408 19.456C1.49333 18.1334 1.664 17.0027 1.92 16.064C2.176 15.2107 2.45333 14.5707 2.752 14.144C2.92267 13.8027 3.24267 13.632 3.712 13.632C4.05333 13.632 4.30933 13.6534 4.48 13.696C5.41867 13.8667 6.144 14.0587 6.656 14.272C7.21067 14.4854 7.616 14.8694 7.872 15.424C7.95733 15.5947 8 15.872 8 16.256C8 17.92 7.85067 19.904 7.552 22.208L7.36 24.064C7.31733 24.4054 7.25333 24.7254 7.168 25.024C7.12533 25.3227 7.104 25.6214 7.104 25.92C6.93333 27.2 6.848 28.096 6.848 28.608V30.848C6.80533 31.36 6.80533 31.7867 6.848 32.128L6.912 32.96C6.86933 33.2587 6.82667 33.5574 6.784 33.856C6.86933 34.0694 6.912 34.3254 6.912 34.624C6.912 34.88 6.912 35.1787 6.912 35.52C7.38133 35.392 7.70133 35.2854 7.872 35.2L10.176 33.92C10.6027 33.7494 10.9227 33.6 11.136 33.472L12.288 32.896C13.312 32.4267 13.952 31.936 14.208 31.424C14.5067 30.912 14.656 30.0374 14.656 28.8C14.656 26.6667 14.7627 24.832 14.976 23.296L15.104 21.824L13.888 22.976C13.504 23.3174 13.0347 23.5094 12.48 23.552C12.1387 23.552 11.6267 23.6374 10.944 23.808C10.176 23.296 9.792 23.04 9.792 23.04L8.96 22.272C9.55733 20.608 10.752 19.2 12.544 18.048L16.32 15.808C17.088 15.424 17.6853 15.3174 18.112 15.488C19.0933 15.744 20.0107 16.1067 20.864 16.576C21.12 16.704 21.3333 16.9387 21.504 17.28C21.8453 18.2187 22.016 19.1147 22.016 19.968C22.016 20.6507 21.9093 21.2694 21.696 21.824C21.2267 22.976 20.7573 24.2347 20.288 25.6C19.8187 26.9227 19.52 27.8614 19.392 28.416C19.3067 28.7574 19.2213 29.248 19.136 29.888C20.8 29.1627 21.9093 28.7147 22.464 28.544C22.8907 28.3734 23.1253 28.288 23.168 28.288C23.3813 28.288 23.3813 28.48 23.168 28.864C22.9973 29.2054 22.656 29.632 22.144 30.144L19.456 32.576L18.752 33.088C18.4533 33.216 18.1547 33.4507 17.856 33.792C17.6 34.1334 17.3867 34.368 17.216 34.496C17.0453 34.6667 16.8533 34.8374 16.64 35.008C16.4267 35.1787 16.2773 35.3494 16.192 35.52C15.5093 36.16 14.8053 36.736 14.08 37.248C13.4827 37.6747 12.8853 38.144 12.288 38.656C11.7333 39.168 11.264 39.7227 10.88 40.32L9.152 39.168ZM23.36 50.688C23.0187 50.6454 22.5067 50.24 21.824 49.472C21.184 48.6614 20.7147 48 20.416 47.488C20.1173 46.9334 19.968 46.3574 19.968 45.76C19.968 44.9494 20.3307 43.776 21.056 42.24C21.6533 41.1307 22.6773 39.6374 24.128 37.76C25.6213 35.8827 26.8587 34.4747 27.84 33.536C28.0107 33.3654 28.224 33.152 28.48 32.896C28.7787 32.64 29.0347 32.512 29.248 32.512C29.8027 32.896 30.336 33.4294 30.848 34.112C31.4027 34.752 31.7013 35.392 31.744 36.032C31.7867 36.2454 31.8293 36.4587 31.872 36.672C31.872 36.928 31.808 37.1414 31.68 37.312C31.552 37.4827 31.4027 37.632 31.232 37.76C31.104 37.888 30.976 38.016 30.848 38.144C31.6587 38.656 32.2347 39.232 32.576 39.872C33.216 40.4267 33.856 41.3654 34.496 42.688C34.7093 43.2 34.816 43.6267 34.816 43.968C34.816 44.6934 34.496 45.44 33.856 46.208C33.2587 46.848 32.384 47.5307 31.232 48.256C30.1227 48.9814 29.184 49.4507 28.416 49.664C27.392 50.0054 26.3467 50.2827 25.28 50.496C24.256 50.7094 23.616 50.7734 23.36 50.688ZM23.424 47.616C23.552 47.7867 23.7867 47.872 24.128 47.872C24.768 47.872 25.6427 47.6587 26.752 47.232C27.904 46.7627 28.8853 46.2294 29.696 45.632C30.5493 44.992 30.9547 44.416 30.912 43.904C30.912 42.8374 30.272 41.5147 28.992 39.936C28.352 40.1494 27.776 40.6187 27.264 41.344C26.624 42.1547 25.7707 43.3494 24.704 44.928C23.68 46.5067 23.2533 47.4027 23.424 47.616ZM31.744 30.592C31.7013 30.6347 31.68 30.528 31.68 30.272C31.68 29.9734 31.68 29.7174 31.68 29.504C31.552 29.504 31.4453 29.5467 31.36 29.632C31.3173 29.7174 31.2747 29.824 31.232 29.952C31.232 29.9947 31.2107 30.0374 31.168 30.08C31.0827 30.0374 30.976 29.9947 30.848 29.952C30.7627 29.8667 30.6773 29.8454 30.592 29.888C30.5493 29.9307 30.4853 30.016 30.4 30.144C30.3573 30.2294 30.2933 30.2934 30.208 30.336C29.696 30.336 29.3973 30.3147 29.312 30.272C29.184 30.2294 29.056 30.1654 28.928 30.08C28.8427 29.9947 28.736 29.9307 28.608 29.888L27.072 28.992L26.56 28.928C26.4747 28.8427 26.368 28.5227 26.24 27.968C26.1973 27.712 26.176 27.328 26.176 26.816C26.176 25.7067 26.368 24.2987 26.752 22.592L27.072 20.8L27.2 19.328C27.2 18.6454 27.2213 18.1547 27.264 17.856C27.4347 16.4907 27.584 15.4667 27.712 14.784C28.1387 11.6267 28.3733 9.32269 28.416 7.87202V7.29602C28.416 7.04002 28.352 6.86936 28.224 6.78402C28.1387 6.69869 27.8827 6.67735 27.456 6.72002C27.3707 6.54935 27.2853 6.37869 27.2 6.20802C27.1147 5.99469 27.1147 5.80269 27.2 5.63202C27.2427 5.54669 27.328 5.44002 27.456 5.31202C27.6267 5.18402 27.7547 5.09869 27.84 5.05602C27.9253 5.01336 27.9893 5.01336 28.032 5.05602C28.1173 5.05602 28.2027 5.05602 28.288 5.05602L29.056 4.80002L29.632 4.92802C29.7173 4.88535 29.7813 4.84269 29.824 4.80002C29.8667 4.75736 29.9307 4.73602 30.016 4.73602C31.04 4.73602 31.744 4.88536 32.128 5.18402L32.448 5.56802C33.0027 6.16535 33.408 6.65602 33.664 7.04002C33.92 7.38135 34.0693 7.82935 34.112 8.38402C34.1547 8.46935 34.176 8.57602 34.176 8.70402C34.176 8.83202 34.176 8.96002 34.176 9.08802C34.176 9.21602 34.1973 9.36536 34.24 9.53602C34.24 9.62135 34.24 9.68535 34.24 9.72802C34.2827 9.72802 34.3467 9.72802 34.432 9.72802L34.368 8.44802C34.496 8.44802 34.56 8.64002 34.56 9.02402C34.816 9.57869 34.9653 10.048 35.008 10.432C35.0933 10.7734 35.0933 11.2854 35.008 11.968L34.496 16.768C34.2827 18.2187 34.1547 19.584 34.112 20.864C35.6053 20.0107 36.48 19.52 36.736 19.392C37.248 19.136 37.8453 18.9014 38.528 18.688C39.2533 18.4747 39.936 18.368 40.576 18.368C40.832 18.368 41.1733 18.4107 41.6 18.496C41.7707 18.5387 41.8987 18.624 41.984 18.752C42.112 18.88 42.2187 18.9867 42.304 19.072C42.3467 19.1147 42.4107 19.136 42.496 19.136C42.624 19.136 42.7093 19.1574 42.752 19.2L43.072 19.584H43.776C43.8613 19.584 43.9467 19.6267 44.032 19.712C44.16 19.7547 44.288 19.776 44.416 19.776C44.416 19.8614 44.288 19.9254 44.032 19.968C43.8187 19.968 43.712 20.0107 43.712 20.096C43.6267 20.1814 43.6267 20.2454 43.712 20.288C43.84 20.416 44.2027 20.5227 44.8 20.608C44.7573 20.736 44.672 20.8427 44.544 20.928C44.416 20.9707 44.2667 21.0134 44.096 21.056C42.8587 21.4827 41.2587 22.1654 39.296 23.104C38.2293 23.5734 36.928 24.2774 35.392 25.216C34.752 25.6427 34.2613 26.0054 33.92 26.304C33.5787 26.56 33.3013 26.88 33.088 27.264L33.024 27.456C33.024 27.5414 33.024 27.6267 33.024 27.712C33.024 27.7974 32.96 27.904 32.832 28.032C32.832 28.2454 32.7893 28.4374 32.704 28.608C32.6613 28.7787 32.576 28.992 32.448 29.248L32.384 29.824C32.3413 29.952 32.2347 30.1014 32.064 30.272C31.8933 30.4 31.7867 30.5067 31.744 30.592Z" fill="black"/>
</svg>
